<svg xmlns="http://www.w3.org/2000/svg" xmlns:xlink="http://www.w3.org/1999/xlink" width="2000" zoomAndPan="magnify" viewBox="0 0 1500 1499.999933" height="2000" preserveAspectRatio="xMidYMid meet" version="1.0"><defs><clipPath id="61e243b3ca"><path d="M 75 0 L 1425 0 C 1466.421875 0 1500 33.578125 1500 75 L 1500 1425 C 1500 1466.421875 1466.421875 1500 1425 1500 L 75 1500 C 33.578125 1500 0 1466.421875 0 1425 L 0 75 C 0 33.578125 33.578125 0 75 0 Z M 75 0 " clip-rule="nonzero"/></clipPath><clipPath id="9610e09e68"><path d="M 0 0 L 1500 0 L 1500 1500 L 0 1500 Z M 0 0 " clip-rule="nonzero"/></clipPath><clipPath id="0574703009"><path d="M 75 0 L 1425 0 C 1466.421875 0 1500 33.578125 1500 75 L 1500 1425 C 1500 1466.421875 1466.421875 1500 1425 1500 L 75 1500 C 33.578125 1500 0 1466.421875 0 1425 L 0 75 C 0 33.578125 33.578125 0 75 0 Z M 75 0 " clip-rule="nonzero"/></clipPath><clipPath id="da0f4aea07"><rect x="0" width="1500" y="0" height="1500"/></clipPath><clipPath id="24eeff27dd"><path d="M 134 141 L 1358 141 L 1358 1349.96875 L 134 1349.96875 Z M 134 141 " clip-rule="nonzero"/></clipPath></defs><g clip-path="url(#61e243b3ca)"><g transform="matrix(1, 0, 0, 1, 0, 0.000000000000112861)"><g clip-path="url(#da0f4aea07)"><g clip-path="url(#9610e09e68)"><g clip-path="url(#0574703009)"><rect x="-330" width="2160" fill="#c44522" height="2159.999904" y="-329.999985" fill-opacity="1"/></g></g></g></g></g><g clip-path="url(#24eeff27dd)"><path fill="#ffffff" d="M 738.824219 145.792969 C 737.144531 148.488281 727.824219 162.488281 718.113281 176.902344 C 686.492188 223.859375 664.144531 266.238281 642.8125 319.703125 C 624.039062 366.769531 606.207031 431.890625 606.207031 453.40625 C 606.207031 460.683594 628.390625 520.3125 632.96875 525.339844 C 636.148438 528.832031 637.144531 524.953125 639.0625 501.667969 C 642.816406 456.039062 655.992188 395.054688 670.527344 356.019531 C 687.535156 310.351562 737.753906 214.8125 744.945312 214.4375 C 746.726562 214.34375 764.429688 243.03125 778.246094 268.398438 C 819.863281 344.804688 843.839844 424.796875 852.164062 515.015625 C 853.21875 526.414062 853.9375 528.511719 856.011719 526.234375 C 860.800781 520.984375 883.6875 461.535156 883.6875 454.34375 C 883.6875 428.816406 862.851562 355.632812 840.332031 302.066406 C 821.585938 257.472656 784.542969 192.675781 753.730469 150.574219 C 745.710938 139.609375 743.191406 138.804688 738.824219 145.792969 M 1008.722656 287.128906 C 982.738281 334.160156 975.207031 348.308594 956.480469 385.253906 C 871.992188 551.933594 825.625 686.511719 796.050781 850.902344 C 790.5625 881.40625 781.679688 941.570312 781.640625 948.515625 C 781.59375 957.039062 779.296875 959.058594 771.164062 957.738281 L 763.886719 956.554688 L 761.722656 392.859375 L 754.152344 375.003906 C 749.984375 365.1875 745.875 357.152344 745.015625 357.152344 C 743.042969 357.152344 730.785156 384.382812 729.527344 391.566406 C 729.007812 394.519531 728.199219 400.609375 727.730469 405.097656 C 727.257812 409.589844 726.808594 535.496094 726.730469 684.898438 L 726.585938 956.535156 L 719.953125 957.566406 C 716.304688 958.136719 712.503906 957.832031 711.503906 956.894531 C 710.5 955.957031 707.105469 936.546875 703.957031 913.757812 C 679.671875 737.980469 630.550781 582.046875 545.65625 411.21875 C 523.886719 367.410156 474.035156 273.636719 470.421875 269.691406 C 468.285156 267.363281 467.488281 267.613281 465.5625 271.210938 C 460.515625 280.636719 442.539062 332.195312 433.675781 362.652344 C 415.007812 426.8125 409.441406 464.140625 409.371094 525.625 L 409.320312 570.660156 L 431.710938 594.644531 C 444.023438 607.835938 454.421875 617.660156 454.816406 616.476562 C 455.210938 615.292969 454.140625 605.808594 452.4375 595.402344 C 445.285156 551.746094 446.339844 496.988281 455.355469 444.105469 C 461.628906 407.289062 472.6875 366.714844 476.128906 367.859375 C 477.332031 368.261719 482.660156 376.1875 487.972656 385.476562 C 493.824219 395.710938 498.105469 401.292969 498.851562 399.648438 C 499.523438 398.160156 499.617188 398.832031 499.058594 401.144531 C 498.402344 403.851562 505.394531 420.21875 518.671875 447.050781 C 579.53125 570.078125 625.542969 700.800781 651.835938 825.398438 C 661.539062 871.371094 671.34375 928.714844 674.558594 958.253906 L 675.914062 970.738281 L 668.496094 975.320312 C 664.417969 977.84375 660.59375 979.421875 660.003906 978.828125 C 659.410156 978.234375 650.910156 960.457031 641.113281 939.320312 C 577.03125 801.046875 487.757812 686.972656 326.832031 537.71875 C 305.050781 517.519531 281.234375 495.253906 273.898438 488.242188 C 266.566406 481.226562 259.378906 475.488281 257.921875 475.488281 C 255.828125 475.488281 255.285156 485.601562 255.320312 523.945312 C 255.386719 608.875 264.902344 673.320312 285.882812 731.003906 C 295.75 758.128906 297.636719 760.160156 328.617188 776.941406 C 343.636719 785.078125 356.621094 791.734375 357.472656 791.734375 C 358.324219 791.734375 354.394531 783.414062 348.734375 773.25 C 320.230469 722.019531 303.003906 659.347656 297.035156 585.15625 C 295.960938 571.78125 296.21875 567.300781 298.0625 567.300781 C 299.414062 567.300781 329.191406 595.996094 364.222656 631.0625 C 477.972656 744.914062 535.445312 817.449219 587.214844 912.488281 C 600.113281 936.164062 630.792969 1000.5625 630.601562 1003.566406 C 630.554688 1004.324219 627.039062 1008.902344 622.785156 1013.742188 L 615.058594 1022.542969 L 582.578125 990.238281 C 504.71875 912.796875 434.40625 866.523438 255.277344 774.851562 C 156.980469 724.539062 138.921875 715.621094 137.75 716.792969 C 134.601562 719.941406 165.839844 808.09375 182.871094 844.136719 C 215.117188 912.359375 247.257812 956.984375 292.347656 996.144531 C 328.117188 1027.207031 359.464844 1041.230469 421.5625 1053.949219 C 451.769531 1060.132812 472.445312 1065.785156 486.023438 1071.570312 L 495.398438 1075.5625 L 512.902344 1062.695312 C 522.527344 1055.621094 530.476562 1049.253906 530.5625 1048.550781 C 530.757812 1046.933594 513.5625 1039.492188 495.066406 1033.191406 C 487.242188 1030.523438 465.664062 1025.117188 447.121094 1021.179688 C 391.917969 1009.460938 369.671875 1001.242188 338.929688 981.210938 C 316.957031 966.890625 279.046875 927.136719 259.664062 898.082031 C 237.503906 864.871094 207.410156 804.238281 211.203125 800.445312 C 212.527344 799.121094 229.941406 807.574219 288.941406 838.191406 C 402.738281 897.25 464.597656 936.175781 527.058594 988.027344 C 547.101562 1004.664062 596.007812 1053.628906 596.007812 1057.054688 C 596.007812 1057.859375 589.808594 1060.0625 582.234375 1061.953125 C 522.652344 1076.824219 479.84375 1128.378906 476.246094 1189.589844 C 470.289062 1290.910156 573.449219 1364.851562 666.632812 1326.058594 C 690.449219 1316.144531 696.328125 1311.597656 783.714844 1235.496094 C 868.511719 1161.648438 863.253906 1165.261719 882.285156 1167.769531 C 898.429688 1169.898438 909.410156 1188.960938 904.304688 1206 C 897.292969 1229.40625 871.070312 1235.457031 852.160156 1218.027344 C 847.367188 1213.609375 842.789062 1209.992188 841.992188 1209.992188 C 838.738281 1209.992188 814.371094 1231.644531 814.34375 1234.5625 C 814.300781 1239.347656 830.28125 1253.75 842.878906 1260.28125 C 853.132812 1265.597656 855.953125 1266.101562 875.523438 1266.101562 C 894.785156 1266.101562 897.988281 1265.550781 907.230469 1260.671875 C 919.746094 1254.066406 933.523438 1239.53125 939.464844 1226.671875 C 943 1219.015625 943.871094 1213.304688 943.871094 1197.75 C 943.875 1181.039062 943.128906 1176.777344 938.464844 1166.828125 C 931.714844 1152.433594 918.703125 1139.53125 904.089844 1132.75 C 889.574219 1126.015625 865.460938 1125.339844 850.160156 1131.242188 C 839.015625 1135.539062 790 1175.648438 715.363281 1241.539062 C 663.484375 1287.335938 647.964844 1295.746094 615.527344 1295.636719 C 587.648438 1295.539062 564.679688 1286.214844 545.933594 1267.382812 C 506.777344 1228.042969 506.867188 1167.105469 546.140625 1127.019531 C 564.828125 1107.941406 586.675781 1099.179688 615.472656 1099.195312 C 643.285156 1099.214844 661.433594 1106.882812 684.683594 1128.445312 L 700.253906 1142.882812 L 710.519531 1134.101562 C 716.167969 1129.269531 722.550781 1124.0625 724.707031 1122.519531 C 726.859375 1120.980469 728.558594 1118.226562 728.476562 1116.398438 C 728.28125 1111.917969 699.140625 1086.375 683.269531 1076.773438 C 676.234375 1072.515625 664.277344 1067.144531 656.703125 1064.84375 C 647.832031 1062.144531 642.933594 1059.585938 642.933594 1057.648438 C 642.933594 1048.058594 671.671875 1018.949219 691.660156 1008.296875 C 715.601562 995.535156 747.394531 992.378906 776.636719 999.859375 C 795.730469 1004.742188 812.503906 1015.046875 828.800781 1031.894531 C 839.414062 1042.871094 850.4375 1058.359375 848.722656 1059.886719 C 848.316406 1060.253906 842.472656 1062.113281 835.738281 1064.023438 C 812.890625 1070.503906 803.378906 1077.066406 746.875 1125.320312 C 740.308594 1130.929688 718.1875 1149.753906 697.722656 1167.144531 C 677.261719 1184.539062 654.953125 1203.722656 648.152344 1209.773438 C 631.507812 1224.585938 624.972656 1228.339844 615.796875 1228.347656 C 588.226562 1228.375 573.65625 1193.570312 593.410156 1174.890625 C 606.5 1162.507812 624.75 1163.625 640.070312 1177.746094 C 650.324219 1187.199219 649.730469 1187.34375 668.332031 1170.734375 L 678.425781 1161.71875 L 668.816406 1151.441406 C 663.527344 1145.785156 653.472656 1138.070312 646.476562 1134.292969 C 634.59375 1127.875 632.464844 1127.421875 614.367188 1127.390625 C 598.300781 1127.367188 593.378906 1128.152344 585.59375 1131.988281 C 572.585938 1138.398438 557.582031 1153.777344 551.296875 1167.144531 C 546.746094 1176.820312 546.03125 1181.039062 546.113281 1197.75 C 546.195312 1214.566406 546.941406 1218.660156 551.769531 1228.648438 C 558.292969 1242.148438 572.019531 1255.554688 585.445312 1261.527344 C 598.507812 1267.339844 622.421875 1268.628906 637.25 1264.316406 C 650.835938 1260.367188 660.113281 1253.457031 707.625 1211.910156 C 812.601562 1120.105469 821.160156 1113.136719 836.667969 1106.835938 C 877.589844 1090.207031 923 1100.648438 949.253906 1132.722656 C 982.859375 1173.765625 980.789062 1230.421875 944.3125 1267.78125 C 925.710938 1286.832031 902.410156 1296.070312 873.230469 1295.960938 C 848.199219 1295.867188 822.125 1284.238281 802.074219 1264.226562 C 797.023438 1259.1875 791.414062 1255.023438 789.601562 1254.972656 C 787.792969 1254.917969 780.445312 1260.308594 773.28125 1266.945312 L 760.25 1279.007812 L 769.429688 1288.511719 C 789.796875 1309.582031 817.636719 1326.308594 842.878906 1332.636719 C 849.261719 1334.238281 864.222656 1335.429688 877.566406 1335.398438 C 904.007812 1335.335938 919.714844 1331.382812 942.179688 1319.128906 C 988.863281 1293.667969 1016.882812 1243.296875 1013.667969 1190.609375 C 1011.472656 1154.589844 997.566406 1124.019531 971.417969 1097.71875 C 954.703125 1080.90625 933.1875 1068.640625 908.679688 1061.953125 C 901.667969 1060.039062 895.929688 1057.699219 895.929688 1056.753906 C 895.929688 1053.203125 920.902344 1026.214844 942.195312 1006.753906 C 1010.242188 944.5625 1072.039062 904.988281 1219.921875 828.894531 C 1276.742188 799.65625 1281.542969 797.332031 1281.542969 799.015625 C 1281.542969 802.121094 1257.203125 853.371094 1248.457031 868.675781 C 1212.550781 931.507812 1166.636719 977.660156 1118.261719 999.539062 C 1100.015625 1007.792969 1081.675781 1013.191406 1051.359375 1019.238281 C 1007.90625 1027.910156 961.21875 1043.214844 961.21875 1048.792969 C 961.21875 1050.214844 971.097656 1058.113281 993.132812 1074.300781 C 995.015625 1075.683594 997.296875 1075.445312 1000.34375 1073.542969 C 1008.027344 1068.742188 1032.457031 1061.234375 1053.867188 1057.085938 C 1128.050781 1042.714844 1155.132812 1031.355469 1197.890625 996.679688 C 1245.898438 957.738281 1294.863281 882.480469 1326.578125 798.875 C 1339.722656 764.222656 1354.941406 716.871094 1353.417969 715.347656 C 1351.664062 713.59375 1147.714844 818.625 1106.078125 842.726562 C 1020.042969 892.523438 964.617188 933.675781 907.871094 989.875 C 889.753906 1007.820312 874.191406 1021.765625 873.292969 1020.863281 C 872.390625 1019.960938 868.992188 1015.652344 865.738281 1011.28125 L 859.816406 1003.339844 L 863.75 992.921875 C 870.183594 975.882812 900.65625 914.082031 913.300781 892.4375 C 930.78125 862.515625 964.789062 812.070312 984.636719 786.632812 C 1025.933594 733.691406 1064.492188 691.769531 1140.382812 617.289062 C 1183.984375 574.492188 1191.125 568.015625 1192.820312 569.710938 C 1193.230469 570.121094 1192.667969 580.535156 1191.578125 592.851562 C 1185.511719 661.359375 1167.800781 724.367188 1141.121094 772.351562 C 1135.503906 782.449219 1131.707031 791.003906 1132.683594 791.363281 C 1135.183594 792.277344 1188.402344 763.9375 1192.324219 759.601562 C 1201.160156 749.839844 1218.453125 691.246094 1226.203125 644.832031 C 1232.753906 605.570312 1234.613281 578.867188 1234.613281 523.875 C 1234.617188 473.472656 1234.601562 473.3125 1230.417969 475.550781 C 1224.921875 478.496094 1133.734375 563.945312 1095.617188 601.875 C 972.3125 724.574219 900.222656 825.035156 840.070312 957.980469 C 835 969.183594 830.117188 978.589844 829.21875 978.886719 C 828.316406 979.179688 824.53125 977.566406 820.808594 975.296875 C 813.132812 970.617188 813.15625 971.59375 819.734375 927.414062 C 844.578125 760.554688 888.472656 620.613281 968.210938 454.066406 C 987.230469 414.347656 1012.203125 367.355469 1014.296875 367.355469 C 1016.0625 367.355469 1016.425781 368.535156 1024.386719 400 C 1038.933594 457.515625 1044.507812 512.585938 1040.785156 562 C 1039.589844 577.820312 1037.363281 596.734375 1035.839844 604.027344 C 1034.308594 611.320312 1033.457031 617.707031 1033.941406 618.21875 C 1034.429688 618.730469 1044.488281 609.484375 1056.300781 597.671875 C 1073.269531 580.703125 1078.167969 574.511719 1079.636719 568.175781 C 1082.113281 557.496094 1082.03125 499.753906 1079.503906 475.488281 C 1073.527344 418.128906 1057.640625 356.5 1030.585938 285.742188 C 1026.9375 276.203125 1023.269531 267.648438 1022.4375 266.726562 C 1021.601562 265.808594 1015.429688 274.992188 1008.722656 287.128906 M 469.371094 1391.351562 C 447.304688 1398.414062 436.726562 1411.25 436.148438 1431.664062 L 435.84375 1442.550781 L 285.714844 1442.570312 C 203.140625 1442.578125 135.1875 1442.980469 134.707031 1443.460938 C 134.222656 1443.945312 134.164062 1448.535156 134.570312 1453.660156 C 135.308594 1462.960938 135.332031 1462.988281 143.027344 1462.988281 L 150.742188 1462.988281 L 151.617188 1489 C 152.59375 1517.914062 155.992188 1528.210938 167.195312 1536.1875 C 179.101562 1544.667969 200.84375 1546.167969 211.851562 1539.269531 C 214.335938 1537.710938 216.859375 1536.4375 217.460938 1536.4375 C 218.0625 1536.4375 218.554688 1546.078125 218.554688 1557.859375 L 218.554688 1579.285156 L 244.054688 1579.285156 L 244.054688 1464.007812 L 258.847656 1463.410156 L 273.640625 1462.808594 L 273.640625 1579.285156 L 300.164062 1579.285156 L 300.164062 1462.988281 L 377.695312 1462.988281 L 377.695312 1480.980469 L 363.5625 1483.367188 C 336.089844 1488 322.609375 1502.109375 322.609375 1526.21875 C 322.609375 1540.632812 325.707031 1549.179688 334.617188 1559.328125 C 350.957031 1577.9375 381.710938 1581.847656 409.398438 1568.832031 C 415.308594 1566.054688 418.5 1563.242188 418.5 1560.8125 C 418.5 1557.601562 410.980469 1542.558594 409.375 1542.558594 C 409.066406 1542.558594 404.433594 1545.007812 399.078125 1548 C 383.886719 1556.492188 364.316406 1555.414062 354.445312 1545.542969 C 348.765625 1539.863281 346.597656 1527.289062 349.921875 1519.328125 C 354.222656 1509.042969 360.628906 1505.90625 383.125 1503.085938 L 403.199219 1500.570312 L 403.785156 1481.777344 L 404.371094 1462.988281 L 436.863281 1462.988281 L 436.863281 1579.285156 L 463.386719 1579.285156 L 463.386719 1462.929688 L 586.824219 1464.007812 L 587.054688 1473.832031 L 587.285156 1483.652344 L 579.664062 1482.367188 C 571.46875 1480.984375 560.5625 1484.441406 554.734375 1490.269531 C 551.605469 1493.398438 550.832031 1493.273438 543.816406 1488.515625 C 537.867188 1484.472656 533.71875 1483.390625 524.230469 1483.390625 C 509.367188 1483.390625 498.980469 1488.382812 491.953125 1498.910156 C 484.804688 1509.613281 484.578125 1534.890625 491.503906 1548.941406 C 496.914062 1559.921875 512.390625 1575.917969 521.089844 1579.523438 C 528.097656 1582.425781 531.101562 1581.054688 538.351562 1571.65625 L 543.273438 1565.269531 L 536.484375 1561.835938 C 521.058594 1554.035156 512.355469 1540.652344 512.355469 1524.730469 C 512.355469 1512.023438 516.582031 1505.824219 525.222656 1505.863281 C 536.015625 1505.917969 537.757812 1508.300781 538.878906 1524.554688 L 539.898438 1539.351562 L 551.121094 1539.425781 L 562.339844 1539.5 L 563.363281 1525.609375 C 564.222656 1513.851562 565.164062 1511.117188 569.480469 1507.800781 C 572.289062 1505.644531 575.960938 1503.878906 577.644531 1503.871094 C 585.109375 1503.835938 585.695312 1506.464844 586.265625 1542.648438 L 586.824219 1578.265625 L 599.578125 1578.871094 L 612.328125 1579.476562 L 612.328125 1462.988281 L 638.378906 1462.988281 L 639.234375 1490.023438 C 640.199219 1520.496094 642.171875 1526.417969 654.472656 1535.800781 C 660.726562 1540.566406 664.34375 1541.613281 676.78125 1542.242188 C 687.570312 1542.785156 693.433594 1542.09375 698.21875 1539.707031 C 701.839844 1537.898438 704.890625 1536.65625 704.992188 1536.941406 C 705.097656 1537.226562 704.882812 1545.507812 704.511719 1555.34375 L 703.839844 1573.234375 L 695.96875 1577.25 C 691.636719 1579.460938 687.546875 1582.152344 686.878906 1583.238281 C 686.210938 1584.320312 688.28125 1588.144531 691.488281 1591.730469 L 697.316406 1598.253906 L 706.601562 1594.710938 C 715.199219 1591.425781 716.351562 1591.40625 722.253906 1594.457031 C 735.917969 1601.523438 726.925781 1618.097656 709.476562 1618.003906 C 698.03125 1617.945312 685.808594 1611.992188 673.511719 1600.484375 L 663.210938 1590.847656 L 656.132812 1597.707031 C 652.238281 1601.480469 649.054688 1605.136719 649.054688 1605.832031 C 649.054688 1609.421875 669.085938 1626.371094 679.234375 1631.367188 C 694.480469 1638.871094 718.039062 1640.714844 731.753906 1635.472656 C 756.769531 1625.921875 760.625 1591.796875 738.316406 1577.410156 L 730.664062 1572.480469 L 730.664062 1462.988281 L 826.558594 1462.988281 L 826.558594 1504.3125 L 817.253906 1495.738281 C 812.136719 1491.019531 804.820312 1485.855469 800.996094 1484.257812 C 790.023438 1479.671875 772.171875 1480.585938 759.738281 1486.378906 C 748.140625 1491.777344 747.5 1493.019531 752.011719 1501.34375 C 758.050781 1512.484375 757.824219 1512.386719 767.546875 1507.976562 C 778.179688 1503.152344 787.902344 1502.691406 795.550781 1506.644531 C 802.75 1510.367188 808.925781 1517.28125 807.34375 1519.84375 C 806.65625 1520.957031 796.007812 1528.519531 783.679688 1536.640625 C 771.355469 1544.765625 761.269531 1552.488281 761.269531 1553.800781 C 761.269531 1557.875 772.351562 1571.039062 775.003906 1570.113281 C 776.386719 1569.632812 788.058594 1561.859375 800.941406 1552.839844 C 813.828125 1543.816406 824.859375 1536.4375 825.460938 1536.4375 C 826.066406 1536.4375 826.558594 1546.078125 826.558594 1557.863281 L 826.558594 1579.285156 L 850.980469 1579.285156 L 851.519531 1521.644531 L 852.0625 1464.007812 L 871.445312 1462.765625 L 871.445312 1442.585938 L 461.347656 1442.585938 L 461.347656 1436.261719 C 461.347656 1432.785156 462.796875 1426.890625 464.566406 1423.160156 C 474.933594 1401.308594 534.6875 1404.980469 581.273438 1430.332031 L 592.945312 1436.683594 L 598.554688 1430.019531 C 601.640625 1426.355469 604.167969 1422.289062 604.167969 1420.984375 C 604.167969 1418.070312 580.730469 1405.566406 562.199219 1398.59375 C 531.710938 1387.117188 492.230469 1384.039062 469.371094 1391.351562 M 1023.355469 1399.839844 C 1021.230469 1402.1875 1019.570312 1407.066406 1019.570312 1410.960938 C 1019.570312 1420.589844 1025.230469 1426.261719 1034.835938 1426.261719 C 1043.464844 1426.261719 1050.988281 1419.136719 1050.988281 1410.960938 C 1050.988281 1408.457031 1049.085938 1403.992188 1046.761719 1401.035156 C 1041.332031 1394.132812 1029.085938 1393.507812 1023.355469 1399.839844 M 911.023438 1445.453125 C 910.417969 1447.027344 910.214844 1451.390625 910.578125 1455.144531 L 911.230469 1461.96875 L 933.988281 1462.542969 C 950.433594 1462.960938 957.402344 1463.910156 959.113281 1465.972656 C 963.238281 1470.941406 964.066406 1489.742188 960.535156 1498.195312 C 957.890625 1504.527344 956.332031 1505.832031 951.4375 1505.832031 C 948.117188 1505.832031 943.90625 1504.042969 941.835938 1501.753906 C 939.804688 1499.507812 937.183594 1497.671875 936.019531 1497.671875 C 933.074219 1497.671875 918.371094 1508.046875 918.371094 1510.121094 C 918.371094 1512.199219 945.871094 1551.136719 959.652344 1568.574219 C 965.195312 1575.585938 971.132812 1581.324219 972.847656 1581.324219 C 976.976562 1581.324219 991.820312 1572.917969 991.820312 1570.578125 C 991.820312 1569.570312 984.9375 1560.027344 976.519531 1549.371094 C 968.101562 1538.714844 961.21875 1529.304688 961.21875 1528.457031 C 961.21875 1525.324219 974.792969 1522.613281 978.792969 1524.949219 C 980.910156 1526.183594 991.589844 1527.207031 1002.53125 1527.222656 L 1022.425781 1527.257812 L 1022.425781 1579.285156 L 1046.847656 1579.285156 L 1047.386719 1521.644531 L 1047.929688 1464.007812 L 1094.347656 1463.460938 L 1140.761719 1462.910156 L 1140.953125 1483.863281 C 1141.335938 1526.480469 1140.367188 1529.894531 1125.808594 1537.132812 C 1119.070312 1540.480469 1117.324219 1540.589844 1109.660156 1538.152344 C 1095.875 1533.769531 1091.039062 1516.613281 1100.269531 1504.878906 C 1104.433594 1499.585938 1105.410156 1499.328125 1118.632812 1500.078125 L 1132.601562 1500.867188 L 1132.601562 1490.34375 C 1132.601562 1480.191406 1132.378906 1479.777344 1126.226562 1478.546875 C 1098.179688 1472.9375 1076.785156 1484.882812 1071.148438 1509.300781 C 1066.738281 1528.402344 1074.480469 1546.867188 1090.4375 1555.308594 C 1101.585938 1561.207031 1126.847656 1561.785156 1135.171875 1556.332031 C 1138.167969 1554.367188 1141.175781 1552.761719 1141.855469 1552.761719 C 1142.535156 1552.761719 1142.855469 1558.5 1142.5625 1565.511719 L 1142.035156 1578.265625 L 1167.222656 1579.476562 L 1167.765625 1521.742188 L 1168.304688 1464.007812 L 1182.078125 1463.402344 C 1192.226562 1462.960938 1195.90625 1463.5 1196.0625 1465.445312 C 1196.175781 1466.898438 1196.105469 1491.5 1195.902344 1520.117188 C 1195.703125 1548.730469 1196.164062 1573.75 1196.933594 1575.714844 C 1198.039062 1578.550781 1200.789062 1579.285156 1210.316406 1579.285156 L 1222.3125 1579.285156 L 1222.851562 1521.644531 L 1223.394531 1464.007812 L 1263.816406 1463.457031 L 1304.238281 1462.902344 L 1303.601562 1470.597656 L 1302.964844 1478.289062 L 1290.4375 1479.671875 C 1262.074219 1482.800781 1245.695312 1498.875 1245.980469 1523.304688 C 1246.339844 1554.285156 1269.171875 1573.332031 1302.722656 1570.636719 L 1315.664062 1569.597656 L 1320.191406 1579.03125 C 1322.679688 1584.21875 1325.992188 1590.457031 1327.554688 1592.894531 L 1330.390625 1597.320312 L 1341.667969 1592.894531 C 1347.871094 1590.457031 1352.945312 1587.675781 1352.949219 1586.710938 C 1352.949219 1585.742188 1348.820312 1579.042969 1343.769531 1571.820312 C 1334.851562 1559.0625 1334.675781 1558.511719 1337.648438 1552.761719 C 1345.867188 1536.871094 1338.261719 1520.117188 1322.832031 1520.117188 C 1311.195312 1520.117188 1307.394531 1523.894531 1306.101562 1536.726562 C 1305.007812 1547.628906 1304.984375 1547.660156 1297.476562 1548.285156 C 1281.757812 1549.59375 1269.515625 1536.230469 1272.0625 1520.539062 C 1274.292969 1506.792969 1283.886719 1501.726562 1311.125 1499.914062 L 1329.488281 1498.691406 L 1330.667969 1462.988281 L 1357.03125 1462.988281 L 1357.03125 1442.585938 L 1134.578125 1442.585938 C 945.421875 1442.585938 911.957031 1443.015625 911.023438 1445.453125 M 178.085938 1487.65625 C 178.722656 1510.707031 179.082031 1512.578125 183.585938 1516.222656 C 190.546875 1521.851562 203.6875 1521.378906 211.390625 1515.214844 C 217.4375 1510.378906 217.496094 1510.125 218.242188 1486.660156 L 218.992188 1462.988281 L 177.40625 1462.988281 Z M 665.714844 1487.421875 C 666.472656 1514.660156 668.660156 1519.441406 680.679688 1520.175781 C 691.324219 1520.824219 693.257812 1520.242188 698.761719 1514.738281 C 703.945312 1509.554688 704.140625 1508.503906 704.140625 1486.175781 L 704.140625 1462.988281 L 665.035156 1462.988281 Z M 987.070312 1469.617188 C 988 1473.265625 988.621094 1482.90625 988.453125 1491.042969 L 988.144531 1505.835938 L 1000.753906 1505.835938 C 1020.386719 1505.835938 1022.425781 1503.519531 1022.425781 1481.234375 L 1022.425781 1462.988281 L 985.375 1462.988281 Z M 138.300781 1672.457031 C 137.554688 1673.203125 136.941406 1689.730469 136.941406 1709.183594 L 136.941406 1744.546875 L 155.078125 1744.546875 L 155.703125 1734.855469 L 156.324219 1725.164062 L 170.699219 1724.042969 C 192.984375 1722.304688 201.796875 1713.289062 199.667969 1694.398438 C 198.304688 1682.296875 192.289062 1676.007812 179.441406 1673.253906 C 168.300781 1670.863281 140.433594 1670.324219 138.300781 1672.457031 M 231.125 1673.976562 C 230.214844 1675.199219 227.574219 1680.789062 225.257812 1686.398438 C 222.941406 1692.011719 216.433594 1706.855469 210.792969 1719.390625 C 205.15625 1731.921875 201.074219 1742.710938 201.726562 1743.363281 C 202.378906 1744.011719 206.476562 1744.546875 210.835938 1744.546875 C 217.964844 1744.546875 219.0625 1743.828125 221.742188 1737.40625 L 224.730469 1730.265625 L 257.261719 1730.265625 L 260.25 1737.40625 C 263.054688 1744.121094 263.796875 1744.546875 272.753906 1744.546875 C 280.882812 1744.546875 282.117188 1744.023438 281.175781 1740.976562 C 277.960938 1730.574219 251.390625 1674.515625 248.960938 1673.015625 C 245.074219 1670.613281 233.160156 1671.257812 231.125 1673.976562 M 281.171875 1672.40625 C 280.398438 1673.183594 279.761719 1676.878906 279.761719 1680.621094 C 279.761719 1687.398438 279.792969 1687.417969 289.722656 1687.417969 C 302.011719 1687.417969 302.140625 1687.761719 302.175781 1720.574219 L 302.203125 1744.546875 L 320.566406 1744.546875 L 320.566406 1687.417969 L 343.257812 1687.417969 L 342.621094 1679.769531 L 341.992188 1672.117188 L 312.289062 1671.554688 C 295.953125 1671.246094 281.949219 1671.628906 281.171875 1672.40625 M 354.574219 1672.457031 C 353.824219 1673.203125 353.210938 1689.757812 353.210938 1709.242188 L 353.210938 1744.664062 L 380.246094 1744.097656 L 407.28125 1743.527344 L 407.28125 1729.246094 L 373.265625 1727.207031 L 372.78125 1701.578125 C 372.511719 1687.484375 371.621094 1674.863281 370.796875 1673.523438 C 369.207031 1670.957031 356.882812 1670.148438 354.574219 1672.457031 M 419.40625 1673.726562 C 418.851562 1675.171875 418.648438 1691.46875 418.957031 1709.941406 L 419.519531 1743.527344 L 428.097656 1744.148438 L 436.671875 1744.773438 L 437.277344 1710.484375 C 437.609375 1691.625 437.082031 1675.050781 436.105469 1673.648438 C 433.761719 1670.292969 420.699219 1670.355469 419.40625 1673.726562 M 456.242188 1673.433594 C 455.625 1675.042969 455.375 1691.46875 455.683594 1709.941406 L 456.246094 1743.527344 L 473.035156 1744.753906 L 475.769531 1724.144531 L 486.988281 1724.144531 C 508.386719 1724.144531 518.816406 1715.789062 518.816406 1698.640625 C 518.816406 1679.605469 509.179688 1673.160156 478.378906 1671.589844 C 461.316406 1670.71875 457.148438 1671.066406 456.242188 1673.433594 M 534.117188 1672.457031 C 532.027344 1674.546875 532.503906 1721.171875 534.671875 1726.871094 C 541.3125 1744.34375 569.328125 1751.097656 587.039062 1739.492188 C 595.761719 1733.777344 598.046875 1724.886719 598.046875 1696.667969 L 598.046875 1671.097656 L 591.3125 1671.097656 C 580.703125 1671.097656 579.683594 1673.539062 579.683594 1698.898438 C 579.683594 1721.21875 579.546875 1721.917969 574.308594 1726.035156 C 567.25 1731.589844 562.246094 1731.375 556.128906 1725.257812 C 551.425781 1720.554688 551.121094 1718.894531 551.121094 1698.121094 C 551.121094 1683.628906 550.273438 1675.148438 548.671875 1673.546875 C 546.054688 1670.929688 536.371094 1670.203125 534.117188 1672.457031 M 609.109375 1672.96875 C 608.636719 1673.433594 608.246094 1676.878906 608.246094 1680.621094 L 608.246094 1687.417969 L 630.691406 1687.417969 L 630.691406 1744.546875 L 648.9375 1744.546875 L 649.507812 1716.492188 L 650.074219 1688.441406 L 671.730469 1687.199219 L 671.101562 1679.660156 L 670.476562 1672.117188 L 640.226562 1672.117188 C 623.585938 1672.117188 609.585938 1672.5 609.109375 1672.96875 M 684.582031 1672.96875 C 684.117188 1673.433594 683.738281 1689.730469 683.738281 1709.183594 L 683.738281 1744.546875 L 702.101562 1744.546875 L 702.101562 1734.347656 C 702.101562 1724.1875 702.128906 1724.144531 708.765625 1724.144531 C 714.511719 1724.144531 716.347656 1725.550781 722.105469 1734.347656 C 728.46875 1744.066406 729.214844 1744.546875 737.886719 1744.546875 C 748.902344 1744.546875 749.367188 1742.324219 740.824219 1730.53125 L 734.660156 1722.023438 L 738.980469 1717.472656 C 750.46875 1705.367188 749.503906 1686.214844 736.980469 1677.796875 C 733.023438 1675.136719 725.847656 1673.96875 708.554688 1673.175781 C 695.835938 1672.59375 685.046875 1672.5 684.582031 1672.96875 M 786.46875 1673.125 C 783.921875 1674.152344 781.03125 1678.164062 779.574219 1682.6875 C 778.195312 1686.972656 775.800781 1692.773438 774.257812 1695.582031 C 768.441406 1706.164062 753.65625 1742.371094 754.71875 1743.4375 C 755.328125 1744.046875 759.394531 1744.546875 763.753906 1744.546875 C 770.882812 1744.546875 771.980469 1743.828125 774.660156 1737.40625 L 777.648438 1730.265625 L 809.921875 1730.265625 L 812.277344 1737.40625 C 814.554688 1744.308594 814.976562 1744.546875 824.894531 1744.546875 C 832.300781 1744.546875 834.867188 1743.835938 834.113281 1741.996094 C 827.550781 1725.953125 802.742188 1673.800781 801.128906 1672.65625 C 798.371094 1670.703125 791.96875 1670.90625 786.46875 1673.125 M 885.570312 1675.734375 C 875.933594 1682.230469 872.5625 1689 874.316406 1698.347656 C 876.023438 1707.464844 882.601562 1712.136719 898.839844 1715.769531 C 911.636719 1718.636719 916.160156 1722.492188 912.25 1727.207031 C 910.851562 1728.886719 906.582031 1730.265625 902.753906 1730.265625 C 898.925781 1730.265625 892.5 1728.886719 888.472656 1727.207031 C 878.691406 1723.117188 878.335938 1723.199219 874.789062 1730.304688 C 871.832031 1736.238281 871.917969 1736.601562 877.101562 1739.996094 C 885.09375 1745.238281 911.539062 1746.074219 920.628906 1741.378906 C 929.859375 1736.605469 932.511719 1732.734375 932.589844 1723.910156 C 932.683594 1713.0625 926.46875 1706.433594 912.625 1702.628906 C 890.136719 1696.449219 886.132812 1692.324219 897.894531 1687.449219 C 902.882812 1685.386719 905.636719 1685.523438 913.59375 1688.234375 C 924.273438 1691.871094 926.488281 1690.878906 927.125 1682.191406 C 927.492188 1677.148438 926.53125 1675.949219 920.410156 1673.816406 C 908.40625 1669.632812 893.402344 1670.457031 885.570312 1675.734375 M 970.101562 1672.664062 C 967.679688 1674.214844 938.773438 1738.53125 938.773438 1742.371094 C 938.773438 1743.570312 942.492188 1744.546875 947.039062 1744.546875 C 954.558594 1744.546875 955.574219 1743.902344 958.289062 1737.40625 L 961.273438 1730.265625 L 993.109375 1730.265625 L 996.511719 1737.40625 C 999.679688 1744.050781 1000.574219 1744.546875 1009.367188 1744.546875 C 1017.421875 1744.546875 1018.660156 1744.019531 1017.742188 1740.976562 C 1016.445312 1736.691406 988.539062 1675.25 987.46875 1674.328125 C 985.496094 1672.621094 972.164062 1671.34375 970.101562 1672.664062 M 1031.097656 1672.449219 C 1029.195312 1673.21875 1028.546875 1682.496094 1028.546875 1709.011719 L 1028.546875 1744.546875 L 1044.714844 1744.546875 L 1045.300781 1725.675781 L 1045.890625 1706.800781 L 1055.070312 1721.644531 C 1067.109375 1741.109375 1070.601562 1741.058594 1082.382812 1721.253906 L 1090.777344 1707.144531 L 1092.816406 1743.527344 L 1099.707031 1744.1875 C 1103.496094 1744.546875 1107.417969 1744.027344 1108.417969 1743.027344 C 1109.449219 1741.992188 1109.640625 1726.054688 1108.859375 1706.152344 C 1107.496094 1671.511719 1107.425781 1671.097656 1102.863281 1671.097656 C 1094.375 1671.097656 1092.066406 1673.394531 1081.191406 1692.65625 C 1075.242188 1703.195312 1069.808594 1711.835938 1069.117188 1711.859375 C 1068.429688 1711.886719 1063.070312 1704.085938 1057.210938 1694.527344 C 1042.789062 1671.011719 1040.160156 1668.792969 1031.097656 1672.449219 M 1121.890625 1672.722656 C 1119.929688 1673.113281 1118.320312 1673.683594 1118.320312 1673.984375 C 1118.320312 1674.285156 1125.066406 1690.054688 1133.316406 1709.03125 L 1148.308594 1743.527344 L 1166.167969 1743.527344 L 1181.121094 1710.09375 C 1189.347656 1691.707031 1195.59375 1675.410156 1195.007812 1673.878906 C 1193.875 1670.933594 1184.195312 1670.132812 1180.242188 1672.65625 C 1178.949219 1673.484375 1173.546875 1684.085938 1168.234375 1696.222656 C 1162.921875 1708.359375 1157.894531 1717.539062 1157.0625 1716.625 C 1156.234375 1715.710938 1152.085938 1706.699219 1147.851562 1696.601562 C 1143.613281 1686.5 1139.339844 1677.191406 1138.347656 1675.910156 C 1136.363281 1673.335938 1127.445312 1671.609375 1121.890625 1672.722656 M 1217.96875 1684.871094 C 1203.492188 1716.640625 1193.808594 1739.570312 1193.808594 1742.089844 C 1193.808594 1743.988281 1196.316406 1744.597656 1202.308594 1744.152344 C 1209.605469 1743.617188 1211.265625 1742.585938 1214.039062 1736.882812 L 1217.273438 1730.234375 L 1233.523438 1730.761719 L 1249.777344 1731.285156 L 1251.671875 1737.917969 C 1253.476562 1744.226562 1254.046875 1744.546875 1263.476562 1744.546875 C 1268.921875 1744.546875 1273.382812 1743.949219 1273.382812 1743.214844 C 1273.382812 1742.480469 1271.191406 1737.203125 1268.515625 1731.480469 C 1260.722656 1714.8125 1253.863281 1699.472656 1248.816406 1687.417969 C 1242.402344 1672.097656 1241.390625 1671.097656 1232.242188 1671.097656 C 1224.347656 1671.097656 1224.160156 1671.277344 1217.96875 1684.871094 M 1283.582031 1707.824219 L 1283.582031 1744.546875 L 1304.117188 1744.546875 C 1339.40625 1744.546875 1353.207031 1735.066406 1354.605469 1709.863281 C 1355.234375 1698.578125 1354.636719 1695.566406 1350.578125 1689.648438 C 1340.570312 1675.050781 1330.414062 1671.226562 1301.433594 1671.144531 L 1283.582031 1671.097656 Z M 156.664062 1688.78125 C 155.917969 1689.527344 155.304688 1694.164062 155.304688 1699.082031 L 155.304688 1708.027344 L 166.996094 1707.414062 C 177.785156 1706.847656 178.84375 1706.351562 180.726562 1700.976562 C 182.480469 1695.96875 182.097656 1694.613281 177.988281 1691.285156 C 173.355469 1687.535156 159.535156 1685.910156 156.664062 1688.78125 M 474.785156 1690.753906 C 472.628906 1696.375 475.746094 1707.582031 479.824219 1708.878906 C 485.875 1710.800781 500.078125 1706.132812 500.351562 1702.132812 C 501.082031 1691.640625 496.6875 1687.578125 484.519531 1687.484375 C 478.535156 1687.4375 475.691406 1688.394531 474.785156 1690.753906 M 702.101562 1697.402344 C 702.101562 1708.84375 704.453125 1710.722656 716.144531 1708.617188 C 725.542969 1706.925781 728.625 1704.429688 728.625 1698.507812 C 728.625 1692.003906 721.265625 1687.417969 710.828125 1687.417969 L 702.101562 1687.417969 Z M 1301.945312 1707.824219 L 1301.945312 1728.226562 L 1313.324219 1728.226562 C 1323.179688 1728.226562 1325.5 1727.425781 1330.667969 1722.261719 C 1335.210938 1717.714844 1336.628906 1714.414062 1336.628906 1708.363281 C 1336.628906 1695.371094 1326.507812 1687.417969 1309.972656 1687.417969 L 1301.945312 1687.417969 Z M 236.289062 1703.230469 C 234.378906 1708.5625 232.820312 1713.402344 232.824219 1713.992188 C 232.832031 1714.578125 236.507812 1715.203125 240.996094 1715.378906 C 245.484375 1715.554688 249.15625 1715.011719 249.15625 1714.164062 C 249.15625 1710.699219 242.542969 1693.539062 241.207031 1693.539062 C 240.414062 1693.539062 238.199219 1697.902344 236.289062 1703.230469 M 789.324219 1702.242188 C 784.375 1714.277344 784.664062 1715.121094 793.914062 1715.667969 C 798.402344 1715.933594 802.074219 1715.269531 802.074219 1714.195312 C 802.074219 1712.003906 794.386719 1693.535156 793.476562 1693.546875 C 793.15625 1693.554688 791.285156 1697.464844 789.324219 1702.242188 M 1227.710938 1703.617188 C 1225.898438 1709.15625 1224.414062 1714.144531 1224.414062 1714.695312 C 1224.414062 1715.25 1228.085938 1715.558594 1232.574219 1715.378906 C 1237.0625 1715.203125 1240.714844 1714.117188 1240.691406 1712.96875 C 1240.632812 1710.273438 1233.054688 1693.539062 1231.890625 1693.539062 C 1231.402344 1693.539062 1229.519531 1698.074219 1227.710938 1703.617188 M 972.714844 1704.320312 C 968.207031 1716.132812 968.238281 1716.214844 977.539062 1715.667969 C 982.527344 1715.375 985.699219 1714.179688 985.699219 1712.59375 C 985.699219 1709.054688 979.15625 1695.582031 977.441406 1695.582031 C 976.675781 1695.582031 974.550781 1699.515625 972.714844 1704.320312 " fill-opacity="1" fill-rule="evenodd"/></g></svg>