<svg xmlns="http://www.w3.org/2000/svg" xmlns:xlink="http://www.w3.org/1999/xlink" width="2000" zoomAndPan="magnify" viewBox="0 0 1500 1499.999933" height="2000" preserveAspectRatio="xMidYMid meet" version="1.0"><defs><clipPath id="825ef35344"><path d="M 199 230 L 1294 230 L 1294 1312.535156 L 199 1312.535156 Z M 199 230 " clip-rule="nonzero"/></clipPath></defs><g clip-path="url(#825ef35344)"><path fill="#f14902" d="M 740.003906 234.800781 C 738.496094 237.214844 730.15625 249.742188 721.46875 262.644531 C 693.167969 304.667969 673.167969 342.59375 654.078125 390.4375 C 637.277344 432.558594 621.320312 490.835938 621.320312 510.09375 C 621.320312 516.601562 641.171875 569.964844 645.269531 574.464844 C 648.113281 577.589844 649.007812 574.121094 650.722656 553.28125 C 654.082031 512.445312 665.871094 457.871094 678.882812 422.9375 C 694.097656 382.070312 739.042969 296.570312 745.480469 296.234375 C 747.070312 296.152344 762.914062 321.824219 775.28125 344.527344 C 812.523438 412.902344 833.980469 484.488281 841.433594 565.222656 C 842.375 575.425781 843.015625 577.300781 844.875 575.265625 C 849.160156 570.566406 869.640625 517.367188 869.640625 510.929688 C 869.640625 488.085938 850.992188 422.59375 830.839844 374.652344 C 814.066406 334.746094 780.917969 276.757812 753.34375 239.082031 C 746.164062 229.269531 743.90625 228.546875 740.003906 234.800781 M 981.535156 361.289062 C 958.28125 403.375 951.542969 416.039062 934.785156 449.101562 C 859.175781 598.265625 817.679688 718.699219 791.210938 865.816406 C 786.300781 893.113281 778.351562 946.957031 778.320312 953.171875 C 778.273438 960.796875 776.21875 962.605469 768.941406 961.425781 L 762.429688 960.367188 L 760.492188 455.90625 L 753.714844 439.929688 C 749.988281 431.144531 746.308594 423.953125 745.542969 423.953125 C 743.773438 423.953125 732.804688 448.320312 731.679688 454.75 C 731.214844 457.394531 730.492188 462.84375 730.074219 466.859375 C 729.652344 470.878906 729.246094 583.554688 729.175781 717.257812 L 729.046875 960.347656 L 723.113281 961.269531 C 719.847656 961.78125 716.445312 961.511719 715.550781 960.671875 C 714.652344 959.832031 711.617188 942.460938 708.796875 922.066406 C 687.0625 764.761719 643.105469 625.210938 567.132812 472.339844 C 547.648438 433.132812 503.039062 349.210938 499.804688 345.683594 C 497.890625 343.597656 497.179688 343.820312 495.453125 347.039062 C 490.9375 355.476562 474.851562 401.617188 466.917969 428.871094 C 450.210938 486.292969 445.230469 519.695312 445.167969 574.71875 L 445.121094 615.023438 L 465.160156 636.488281 C 476.179688 648.292969 485.484375 657.085938 485.839844 656.023438 C 486.191406 654.964844 485.234375 646.476562 483.707031 637.164062 C 477.308594 598.09375 478.253906 549.09375 486.320312 501.765625 C 491.9375 468.820312 501.832031 432.507812 504.910156 433.535156 C 505.988281 433.894531 510.753906 440.988281 515.507812 449.300781 C 520.746094 458.457031 524.578125 463.453125 525.242188 461.984375 C 525.847656 460.648438 525.929688 461.25 525.429688 463.320312 C 524.84375 465.746094 531.101562 480.390625 542.980469 504.402344 C 597.449219 614.503906 638.625 731.488281 662.152344 842.992188 C 670.835938 884.132812 679.609375 935.453125 682.488281 961.886719 L 683.703125 973.058594 L 677.0625 977.160156 C 673.414062 979.417969 669.992188 980.828125 669.464844 980.296875 C 668.933594 979.765625 661.324219 963.859375 652.558594 944.941406 C 595.210938 821.199219 515.320312 719.113281 371.300781 585.542969 C 351.8125 567.464844 330.496094 547.542969 323.933594 541.265625 C 317.371094 534.988281 310.9375 529.851562 309.636719 529.851562 C 307.761719 529.851562 307.277344 538.902344 307.304688 573.21875 C 307.367188 649.222656 315.882812 706.894531 334.660156 758.515625 C 343.488281 782.792969 345.175781 784.609375 372.898438 799.628906 C 386.339844 806.910156 397.960938 812.863281 398.722656 812.863281 C 399.484375 812.863281 395.96875 805.421875 390.90625 796.324219 C 365.394531 750.476562 349.976562 694.390625 344.640625 627.996094 C 343.675781 616.027344 343.90625 612.019531 345.558594 612.019531 C 346.769531 612.019531 373.414062 637.695312 404.765625 669.078125 C 506.558594 770.964844 557.992188 835.878906 604.324219 920.929688 C 615.867188 942.117188 643.320312 999.75 643.152344 1002.433594 C 643.109375 1003.113281 639.960938 1007.214844 636.15625 1011.542969 L 629.242188 1019.417969 L 600.175781 990.507812 C 530.496094 921.207031 467.570312 879.796875 307.269531 797.753906 C 219.300781 752.734375 203.140625 744.75 202.09375 745.796875 C 199.273438 748.617188 227.226562 827.507812 242.472656 859.761719 C 271.328125 920.8125 300.089844 960.75 340.441406 995.792969 C 372.453125 1023.59375 400.507812 1036.144531 456.078125 1047.523438 C 483.109375 1053.058594 501.613281 1058.117188 513.765625 1063.292969 L 522.15625 1066.867188 L 537.820312 1055.351562 C 546.433594 1049.019531 553.546875 1043.324219 553.625 1042.695312 C 553.800781 1041.246094 538.414062 1034.585938 521.859375 1028.945312 C 514.855469 1026.5625 495.546875 1021.722656 478.949219 1018.199219 C 429.546875 1007.710938 409.640625 1000.355469 382.128906 982.429688 C 362.464844 969.617188 328.539062 934.039062 311.191406 908.039062 C 291.363281 878.316406 264.429688 824.054688 267.824219 820.660156 C 269.011719 819.476562 284.59375 827.042969 337.394531 854.441406 C 439.234375 907.292969 494.589844 942.125 550.488281 988.53125 C 568.425781 1003.417969 612.191406 1047.238281 612.191406 1050.304688 C 612.191406 1051.023438 606.644531 1052.996094 599.867188 1054.6875 C 546.546875 1067.996094 508.234375 1114.132812 505.015625 1168.910156 C 499.683594 1259.585938 592.003906 1325.757812 675.398438 1291.039062 C 696.710938 1282.164062 701.96875 1278.097656 780.171875 1209.992188 C 856.058594 1143.90625 851.355469 1147.140625 868.386719 1149.386719 C 882.835938 1151.289062 892.660156 1168.347656 888.089844 1183.597656 C 881.816406 1204.546875 858.347656 1209.957031 841.425781 1194.359375 C 837.136719 1190.40625 833.042969 1187.171875 832.328125 1187.171875 C 829.414062 1187.171875 807.605469 1206.546875 807.582031 1209.15625 C 807.546875 1213.4375 821.847656 1226.328125 833.121094 1232.175781 C 842.296875 1236.933594 844.820312 1237.382812 862.335938 1237.382812 C 879.570312 1237.382812 882.4375 1236.890625 890.710938 1232.523438 C 901.910156 1226.613281 914.242188 1213.605469 919.554688 1202.097656 C 922.722656 1195.246094 923.5 1190.136719 923.5 1176.214844 C 923.503906 1161.261719 922.835938 1157.445312 918.664062 1148.542969 C 912.621094 1135.660156 900.976562 1124.117188 887.898438 1118.046875 C 874.90625 1112.015625 853.332031 1111.414062 839.636719 1116.695312 C 829.664062 1120.542969 785.796875 1156.433594 719.003906 1215.398438 C 672.578125 1256.386719 658.6875 1263.914062 629.660156 1263.8125 C 604.710938 1263.726562 584.15625 1255.382812 567.382812 1238.527344 C 532.339844 1203.324219 532.417969 1148.789062 567.5625 1112.914062 C 584.289062 1095.84375 603.839844 1088 629.613281 1088.019531 C 654.5 1088.035156 670.742188 1094.898438 691.550781 1114.191406 L 705.484375 1127.113281 L 714.671875 1119.253906 C 719.722656 1114.929688 725.4375 1110.269531 727.367188 1108.890625 C 729.292969 1107.511719 730.8125 1105.046875 730.742188 1103.414062 C 730.566406 1099.402344 704.488281 1076.542969 690.285156 1067.949219 C 683.988281 1064.140625 673.289062 1059.335938 666.511719 1057.273438 C 658.570312 1054.859375 654.1875 1052.566406 654.1875 1050.835938 C 654.1875 1042.253906 679.90625 1016.203125 697.792969 1006.667969 C 719.21875 995.25 747.667969 992.425781 773.839844 999.121094 C 790.925781 1003.492188 805.9375 1012.710938 820.523438 1027.789062 C 830.019531 1037.609375 839.886719 1051.472656 838.351562 1052.839844 C 837.984375 1053.167969 832.757812 1054.832031 826.730469 1056.542969 C 806.285156 1062.339844 797.769531 1068.214844 747.207031 1111.394531 C 741.328125 1116.417969 721.535156 1133.261719 703.21875 1148.828125 C 684.90625 1164.390625 664.941406 1181.558594 658.859375 1186.972656 C 643.960938 1200.230469 638.113281 1203.589844 629.902344 1203.597656 C 605.230469 1203.621094 592.1875 1172.476562 609.867188 1155.757812 C 621.582031 1144.675781 637.914062 1145.675781 651.625 1158.3125 C 660.800781 1166.773438 660.269531 1166.902344 676.917969 1152.035156 L 685.949219 1143.96875 L 677.347656 1134.769531 C 672.617188 1129.710938 663.621094 1122.804688 657.355469 1119.425781 C 646.722656 1113.683594 644.820312 1113.273438 628.625 1113.25 C 614.246094 1113.226562 609.839844 1113.929688 602.871094 1117.363281 C 591.234375 1123.097656 577.804688 1136.863281 572.179688 1148.828125 C 568.105469 1157.484375 567.46875 1161.257812 567.539062 1176.214844 C 567.613281 1191.261719 568.285156 1194.925781 572.601562 1203.863281 C 578.4375 1215.945312 590.726562 1227.945312 602.738281 1233.289062 C 614.429688 1238.492188 635.832031 1239.644531 649.101562 1235.785156 C 661.257812 1232.25 669.5625 1226.070312 712.078125 1188.886719 C 806.027344 1106.730469 813.683594 1100.492188 827.5625 1094.855469 C 864.183594 1079.972656 904.820312 1089.316406 928.316406 1118.019531 C 958.390625 1154.753906 956.535156 1205.453125 923.894531 1238.886719 C 907.25 1255.9375 886.394531 1264.203125 860.285156 1264.105469 C 837.882812 1264.019531 814.546875 1253.613281 796.605469 1235.707031 C 792.085938 1231.195312 787.0625 1227.46875 785.441406 1227.421875 C 783.824219 1227.375 777.25 1232.199219 770.835938 1238.136719 L 759.175781 1248.933594 L 767.390625 1257.4375 C 785.617188 1276.296875 810.53125 1291.265625 833.121094 1296.929688 C 838.832031 1298.359375 852.222656 1299.425781 864.160156 1299.398438 C 887.828125 1299.34375 901.882812 1295.804688 921.988281 1284.839844 C 963.765625 1262.050781 988.839844 1216.972656 985.964844 1169.824219 C 983.996094 1137.589844 971.554688 1110.230469 948.152344 1086.695312 C 933.195312 1071.652344 913.9375 1060.671875 892.007812 1054.6875 C 885.730469 1052.976562 880.59375 1050.882812 880.59375 1050.035156 C 880.59375 1046.855469 902.945312 1022.703125 922 1005.289062 C 982.898438 949.632812 1038.199219 914.21875 1170.542969 846.121094 C 1221.390625 819.957031 1225.6875 817.875 1225.6875 819.382812 C 1225.6875 822.164062 1203.902344 868.023438 1196.078125 881.722656 C 1163.945312 937.953125 1122.855469 979.253906 1079.5625 998.835938 C 1063.234375 1006.21875 1046.824219 1011.050781 1019.691406 1016.464844 C 980.804688 1024.222656 939.023438 1037.917969 939.023438 1042.910156 C 939.023438 1044.183594 947.867188 1051.25 967.582031 1065.738281 C 969.269531 1066.976562 971.308594 1066.761719 974.035156 1065.058594 C 980.914062 1060.765625 1002.777344 1054.042969 1021.9375 1050.332031 C 1088.324219 1037.472656 1112.5625 1027.308594 1150.824219 996.273438 C 1193.785156 961.425781 1237.605469 894.074219 1265.992188 819.253906 C 1277.753906 788.246094 1291.371094 745.867188 1290.007812 744.503906 C 1288.4375 742.9375 1105.921875 836.933594 1068.660156 858.5 C 991.667969 903.0625 942.066406 939.890625 891.28125 990.183594 C 875.066406 1006.242188 861.140625 1018.722656 860.335938 1017.917969 C 859.53125 1017.109375 856.488281 1013.25 853.578125 1009.34375 L 848.277344 1002.234375 L 851.800781 992.910156 C 857.554688 977.660156 884.828125 922.355469 896.140625 902.988281 C 911.785156 876.207031 942.21875 831.066406 959.980469 808.300781 C 996.941406 760.921875 1031.445312 723.40625 1099.359375 656.753906 C 1138.382812 618.453125 1144.769531 612.65625 1146.285156 614.175781 C 1146.652344 614.539062 1146.152344 623.859375 1145.175781 634.882812 C 1139.746094 696.191406 1123.898438 752.578125 1100.019531 795.519531 C 1094.996094 804.558594 1091.597656 812.214844 1092.46875 812.53125 C 1094.707031 813.351562 1142.332031 787.992188 1145.84375 784.109375 C 1153.75 775.371094 1169.230469 722.9375 1176.160156 681.402344 C 1182.027344 646.265625 1183.6875 622.367188 1183.691406 573.152344 C 1183.691406 528.046875 1183.679688 527.90625 1179.933594 529.90625 C 1175.015625 532.542969 1093.414062 609.011719 1059.300781 642.957031 C 948.953125 752.761719 884.4375 842.664062 830.605469 961.640625 C 826.070312 971.667969 821.703125 980.085938 820.894531 980.347656 C 820.085938 980.613281 816.703125 979.167969 813.367188 977.136719 C 806.5 972.949219 806.519531 973.824219 812.40625 934.285156 C 834.640625 784.964844 873.921875 659.726562 945.28125 510.679688 C 962.300781 475.136719 984.652344 433.082031 986.523438 433.082031 C 988.105469 433.082031 988.429688 434.136719 995.554688 462.296875 C 1008.574219 513.765625 1013.5625 563.054688 1010.230469 607.273438 C 1009.160156 621.433594 1007.167969 638.355469 1005.804688 644.882812 C 1004.433594 651.410156 1003.671875 657.125 1004.105469 657.582031 C 1004.542969 658.042969 1013.542969 649.765625 1024.117188 639.195312 C 1039.296875 624.011719 1043.683594 618.46875 1045 612.800781 C 1047.214844 603.242188 1047.144531 551.570312 1044.878906 529.851562 C 1039.53125 478.519531 1025.3125 423.371094 1001.101562 360.046875 C 997.835938 351.511719 994.554688 343.851562 993.808594 343.027344 C 993.0625 342.207031 987.539062 350.425781 981.535156 361.289062 M 498.863281 1349.472656 C 479.113281 1355.789062 469.648438 1367.277344 469.132812 1385.546875 L 468.859375 1395.292969 L 334.503906 1395.304688 C 260.609375 1395.3125 199.796875 1395.671875 199.367188 1396.105469 C 198.933594 1396.535156 198.878906 1400.644531 199.246094 1405.234375 C 199.90625 1413.554688 199.929688 1413.578125 206.8125 1413.578125 L 213.71875 1413.578125 L 214.5 1436.859375 C 215.375 1462.734375 218.414062 1471.949219 228.441406 1479.089844 C 239.09375 1486.675781 258.554688 1488.015625 268.40625 1481.847656 C 270.628906 1480.449219 272.886719 1479.3125 273.425781 1479.3125 C 273.964844 1479.3125 274.402344 1487.9375 274.402344 1498.484375 L 274.402344 1517.65625 L 297.226562 1517.65625 L 297.226562 1414.492188 L 310.464844 1413.957031 L 323.703125 1413.417969 L 323.703125 1517.65625 L 347.4375 1517.65625 L 347.4375 1413.578125 L 416.820312 1413.578125 L 416.820312 1429.683594 L 404.171875 1431.816406 C 379.589844 1435.964844 367.523438 1448.589844 367.523438 1470.167969 C 367.523438 1483.0625 370.296875 1490.714844 378.269531 1499.792969 C 392.894531 1516.449219 420.414062 1519.949219 445.191406 1508.300781 C 450.480469 1505.816406 453.339844 1503.296875 453.339844 1501.125 C 453.339844 1498.25 446.609375 1484.789062 445.171875 1484.789062 C 444.894531 1484.789062 440.75 1486.980469 435.957031 1489.660156 C 422.359375 1497.257812 404.847656 1496.292969 396.011719 1487.457031 C 390.933594 1482.375 388.992188 1471.125 391.96875 1464 C 395.816406 1454.792969 401.546875 1451.988281 421.679688 1449.464844 L 439.644531 1447.210938 L 440.171875 1430.394531 L 440.695312 1413.578125 L 469.773438 1413.578125 L 469.773438 1517.65625 L 493.507812 1517.65625 L 493.507812 1413.527344 L 548.742188 1414.007812 L 603.972656 1414.492188 L 604.179688 1423.285156 L 604.386719 1432.074219 L 597.566406 1430.921875 C 590.234375 1429.683594 580.472656 1432.777344 575.253906 1437.996094 C 572.457031 1440.792969 571.765625 1440.683594 565.488281 1436.421875 C 560.160156 1432.808594 556.449219 1431.839844 547.957031 1431.839844 C 534.65625 1431.839844 525.359375 1436.304688 519.070312 1445.726562 C 512.675781 1455.304688 512.472656 1477.925781 518.671875 1490.503906 C 523.511719 1500.328125 537.363281 1514.640625 545.144531 1517.867188 C 551.417969 1520.464844 554.109375 1519.238281 560.59375 1510.828125 L 565 1505.113281 L 558.925781 1502.042969 C 545.117188 1495.058594 537.328125 1483.082031 537.328125 1468.835938 C 537.328125 1457.460938 541.113281 1451.914062 548.84375 1451.949219 C 558.503906 1452 560.0625 1454.128906 561.066406 1468.675781 L 561.980469 1481.917969 L 572.019531 1481.984375 L 582.0625 1482.050781 L 582.976562 1469.621094 C 583.75 1459.097656 584.589844 1456.652344 588.453125 1453.683594 C 590.964844 1451.753906 594.25 1450.171875 595.757812 1450.167969 C 602.441406 1450.136719 602.964844 1452.488281 603.472656 1484.871094 L 603.972656 1516.742188 L 615.386719 1517.285156 L 626.796875 1517.828125 L 626.796875 1413.578125 L 650.109375 1413.578125 L 650.878906 1437.773438 C 651.742188 1465.046875 653.503906 1470.34375 664.511719 1478.738281 C 670.109375 1483.007812 673.347656 1483.945312 684.480469 1484.503906 C 694.132812 1484.992188 699.378906 1484.371094 703.660156 1482.238281 C 706.902344 1480.617188 709.632812 1479.503906 709.726562 1479.761719 C 709.820312 1480.015625 709.625 1487.425781 709.292969 1496.230469 L 708.691406 1512.242188 L 701.648438 1515.835938 C 697.773438 1517.8125 694.113281 1520.222656 693.511719 1521.191406 C 692.914062 1522.160156 694.769531 1525.582031 697.636719 1528.792969 L 702.855469 1534.628906 L 711.164062 1531.457031 C 718.859375 1528.519531 719.890625 1528.503906 725.171875 1531.234375 C 737.402344 1537.558594 729.351562 1552.390625 713.738281 1552.308594 C 703.496094 1552.25 692.558594 1546.925781 681.550781 1536.628906 L 672.332031 1528.003906 L 665.996094 1534.144531 C 662.515625 1537.519531 659.664062 1540.789062 659.664062 1541.414062 C 659.664062 1544.628906 677.59375 1559.792969 686.671875 1564.265625 C 700.316406 1570.976562 721.398438 1572.628906 733.671875 1567.941406 C 756.058594 1559.390625 759.511719 1528.851562 739.546875 1515.980469 L 732.699219 1511.566406 L 732.699219 1413.578125 L 818.515625 1413.578125 L 818.515625 1450.5625 L 810.1875 1442.886719 C 805.609375 1438.664062 799.0625 1434.042969 795.640625 1432.613281 C 785.820312 1428.511719 769.84375 1429.328125 758.71875 1434.511719 C 748.339844 1439.34375 747.765625 1440.453125 751.804688 1447.90625 C 757.207031 1457.875 757.003906 1457.789062 765.707031 1453.84375 C 775.222656 1449.523438 783.921875 1449.109375 790.765625 1452.648438 C 797.207031 1455.980469 802.734375 1462.167969 801.320312 1464.460938 C 800.703125 1465.457031 791.175781 1472.222656 780.140625 1479.492188 C 769.113281 1486.765625 760.085938 1493.671875 760.085938 1494.847656 C 760.085938 1498.492188 770.003906 1510.277344 772.378906 1509.449219 C 773.613281 1509.019531 784.0625 1502.0625 795.589844 1493.988281 C 807.121094 1485.914062 816.996094 1479.3125 817.535156 1479.3125 C 818.074219 1479.3125 818.515625 1487.9375 818.515625 1498.484375 L 818.515625 1517.65625 L 840.367188 1517.65625 L 840.851562 1466.074219 L 841.339844 1414.492188 L 850.011719 1413.9375 L 858.683594 1413.378906 L 858.683594 1395.320312 L 491.683594 1395.320312 L 491.683594 1389.664062 C 491.683594 1386.550781 492.980469 1381.273438 494.5625 1377.9375 C 503.839844 1358.382812 557.316406 1361.667969 599.007812 1384.355469 L 609.453125 1390.039062 L 614.472656 1384.078125 C 617.234375 1380.796875 619.492188 1377.15625 619.492188 1375.988281 C 619.492188 1373.382812 598.519531 1362.191406 581.9375 1355.953125 C 554.652344 1345.679688 519.320312 1342.925781 498.863281 1349.472656 M 994.628906 1357.070312 C 992.730469 1359.167969 991.242188 1363.535156 991.242188 1367.019531 C 991.242188 1375.636719 996.308594 1380.714844 1004.90625 1380.714844 C 1012.628906 1380.714844 1019.363281 1374.335938 1019.363281 1367.019531 C 1019.363281 1364.78125 1017.660156 1360.78125 1015.578125 1358.136719 C 1010.71875 1351.960938 999.757812 1351.402344 994.628906 1357.070312 M 894.101562 1397.886719 C 893.5625 1399.296875 893.382812 1403.199219 893.703125 1406.558594 L 894.289062 1412.667969 L 914.65625 1413.179688 C 929.371094 1413.554688 935.609375 1414.40625 937.140625 1416.25 C 940.832031 1420.699219 941.574219 1437.523438 938.414062 1445.089844 C 936.046875 1450.753906 934.652344 1451.921875 930.269531 1451.921875 C 927.300781 1451.921875 923.53125 1450.320312 921.675781 1448.269531 C 919.859375 1446.261719 917.515625 1444.621094 916.472656 1444.621094 C 913.835938 1444.621094 900.679688 1453.902344 900.679688 1455.761719 C 900.679688 1457.621094 925.289062 1492.464844 937.621094 1508.070312 C 942.582031 1514.347656 947.898438 1519.480469 949.429688 1519.480469 C 953.125 1519.480469 966.410156 1511.957031 966.410156 1509.863281 C 966.410156 1508.960938 960.25 1500.421875 952.71875 1490.882812 C 945.1875 1481.347656 939.023438 1472.925781 939.023438 1472.171875 C 939.023438 1469.363281 951.171875 1466.9375 954.753906 1469.03125 C 956.648438 1470.132812 966.207031 1471.050781 975.996094 1471.066406 L 993.796875 1471.09375 L 993.796875 1494.375 L 993.800781 1517.65625 L 1015.652344 1517.65625 L 1016.136719 1466.074219 L 1016.625 1414.492188 L 1058.160156 1414 L 1099.699219 1413.511719 L 1099.871094 1432.261719 C 1100.214844 1470.402344 1099.347656 1473.457031 1086.316406 1479.933594 C 1080.289062 1482.929688 1078.726562 1483.027344 1071.867188 1480.84375 C 1059.53125 1476.921875 1055.203125 1461.570312 1063.464844 1451.066406 C 1067.1875 1446.332031 1068.0625 1446.101562 1079.898438 1446.773438 L 1092.398438 1447.476562 L 1092.398438 1438.0625 C 1092.398438 1428.972656 1092.195312 1428.601562 1086.691406 1427.503906 C 1061.59375 1422.484375 1042.445312 1433.175781 1037.402344 1455.027344 C 1033.457031 1472.121094 1040.382812 1488.644531 1054.664062 1496.199219 C 1064.640625 1501.476562 1087.246094 1501.996094 1094.695312 1497.113281 C 1097.378906 1495.355469 1100.070312 1493.917969 1100.679688 1493.917969 C 1101.289062 1493.917969 1101.574219 1499.054688 1101.3125 1505.332031 L 1100.839844 1516.742188 L 1123.378906 1517.828125 L 1123.863281 1466.160156 L 1124.351562 1414.492188 L 1136.675781 1413.953125 C 1145.753906 1413.554688 1149.050781 1414.035156 1149.1875 1415.777344 C 1149.292969 1417.078125 1149.226562 1439.097656 1149.046875 1464.703125 C 1148.867188 1490.3125 1149.277344 1512.703125 1149.96875 1514.460938 C 1150.957031 1517 1153.421875 1517.65625 1161.945312 1517.65625 L 1172.679688 1517.65625 L 1173.648438 1414.492188 L 1209.824219 1413.996094 L 1245.996094 1413.5 L 1245.429688 1420.386719 L 1244.859375 1427.273438 L 1233.648438 1428.511719 C 1208.265625 1431.3125 1193.609375 1445.695312 1193.863281 1467.558594 C 1194.183594 1495.28125 1214.617188 1512.328125 1244.640625 1509.917969 L 1256.222656 1508.984375 L 1260.273438 1517.429688 C 1262.5 1522.070312 1265.46875 1527.652344 1266.863281 1529.832031 L 1269.398438 1533.796875 L 1279.492188 1529.832031 C 1285.042969 1527.652344 1289.585938 1525.164062 1289.589844 1524.300781 C 1289.589844 1523.4375 1285.894531 1517.441406 1281.375 1510.972656 C 1273.394531 1499.558594 1273.234375 1499.066406 1275.894531 1493.921875 C 1283.25 1479.699219 1276.445312 1464.703125 1262.636719 1464.703125 C 1252.222656 1464.703125 1248.820312 1468.085938 1247.667969 1479.570312 C 1246.6875 1489.324219 1246.664062 1489.355469 1239.945312 1489.914062 C 1225.878906 1491.082031 1214.925781 1479.125 1217.203125 1465.085938 C 1219.199219 1452.78125 1227.785156 1448.246094 1252.160156 1446.625 L 1268.59375 1445.53125 L 1269.648438 1413.578125 L 1293.246094 1413.578125 L 1293.246094 1395.320312 L 1094.167969 1395.320312 C 924.886719 1395.320312 894.941406 1395.703125 894.101562 1397.886719 M 238.1875 1435.65625 C 238.757812 1456.285156 239.082031 1457.960938 243.109375 1461.21875 C 249.339844 1466.257812 261.097656 1465.835938 267.992188 1460.320312 C 273.402344 1455.988281 273.457031 1455.761719 274.125 1434.765625 L 274.796875 1413.578125 L 237.578125 1413.578125 Z M 674.574219 1435.445312 C 675.253906 1459.820312 677.210938 1464.101562 687.964844 1464.757812 C 697.492188 1465.339844 699.222656 1464.816406 704.148438 1459.890625 C 708.785156 1455.253906 708.960938 1454.3125 708.960938 1434.328125 L 708.960938 1413.578125 L 673.964844 1413.578125 Z M 962.160156 1419.515625 C 962.992188 1422.777344 963.546875 1431.40625 963.398438 1438.6875 L 963.121094 1451.921875 L 974.402344 1451.921875 C 991.972656 1451.921875 993.800781 1449.851562 993.800781 1429.910156 L 993.800781 1413.578125 L 960.644531 1413.578125 Z M 202.585938 1601.039062 C 201.914062 1601.707031 201.367188 1616.496094 201.367188 1633.902344 L 201.367188 1665.550781 L 217.597656 1665.550781 L 218.714844 1648.207031 L 231.578125 1647.203125 C 251.523438 1645.648438 259.410156 1637.578125 257.503906 1620.671875 C 256.28125 1609.84375 250.898438 1604.214844 239.402344 1601.75 C 229.433594 1599.613281 204.492188 1599.128906 202.585938 1601.039062 M 285.652344 1602.398438 C 284.835938 1603.492188 282.476562 1608.492188 280.402344 1613.511719 C 278.328125 1618.535156 272.503906 1631.820312 267.457031 1643.035156 C 262.410156 1654.253906 258.761719 1663.90625 259.34375 1664.492188 C 259.925781 1665.074219 263.59375 1665.550781 267.496094 1665.550781 C 273.875 1665.550781 274.855469 1664.910156 277.257812 1659.160156 L 279.929688 1652.769531 L 309.046875 1652.769531 L 311.714844 1659.160156 C 314.226562 1665.167969 314.894531 1665.550781 322.910156 1665.550781 C 330.183594 1665.550781 331.285156 1665.082031 330.445312 1662.355469 C 327.570312 1653.046875 303.789062 1602.878906 301.613281 1601.535156 C 298.136719 1599.386719 287.476562 1599.960938 285.652344 1602.398438 M 330.441406 1600.988281 C 329.75 1601.683594 329.179688 1604.992188 329.179688 1608.339844 C 329.179688 1614.40625 329.207031 1614.425781 338.09375 1614.425781 C 349.089844 1614.425781 349.207031 1614.730469 349.238281 1644.097656 L 349.265625 1665.550781 L 365.695312 1665.550781 L 365.695312 1614.425781 L 386.003906 1614.425781 L 385.433594 1607.578125 L 384.867188 1600.734375 L 358.289062 1600.230469 C 343.667969 1599.953125 331.136719 1600.292969 330.441406 1600.988281 M 396.128906 1601.039062 C 395.457031 1601.707031 394.910156 1616.519531 394.910156 1633.957031 L 394.910156 1665.65625 L 419.105469 1665.148438 L 443.296875 1664.636719 L 443.296875 1651.855469 L 428.074219 1650.945312 L 412.855469 1650.03125 L 412.421875 1627.097656 C 412.183594 1614.484375 411.382812 1603.1875 410.644531 1601.992188 C 409.226562 1599.695312 398.195312 1598.96875 396.128906 1601.039062 M 454.148438 1602.171875 C 453.652344 1603.464844 453.472656 1618.050781 453.746094 1634.582031 L 454.25 1664.636719 L 469.601562 1665.753906 L 470.140625 1635.066406 C 470.441406 1618.191406 469.96875 1603.359375 469.09375 1602.101562 C 466.996094 1599.101562 455.304688 1599.15625 454.148438 1602.171875 M 487.113281 1601.910156 C 486.5625 1603.347656 486.339844 1618.050781 486.613281 1634.582031 L 487.117188 1664.636719 L 494.628906 1665.1875 L 502.144531 1665.738281 L 504.589844 1647.292969 L 514.628906 1647.292969 C 533.78125 1647.292969 543.113281 1639.816406 543.113281 1624.46875 C 543.113281 1607.433594 534.488281 1601.664062 506.921875 1600.257812 C 491.65625 1599.480469 487.925781 1599.789062 487.113281 1601.910156 M 556.804688 1601.039062 C 554.9375 1602.90625 555.363281 1644.632812 557.300781 1649.734375 C 563.246094 1665.371094 588.316406 1671.414062 604.167969 1661.027344 C 611.972656 1655.914062 614.015625 1647.957031 614.015625 1622.703125 L 614.015625 1599.820312 L 607.992188 1599.820312 C 598.496094 1599.820312 597.582031 1602.003906 597.582031 1624.699219 C 597.582031 1644.675781 597.460938 1645.296875 592.773438 1648.984375 C 586.453125 1653.957031 581.976562 1653.761719 576.503906 1648.289062 C 572.296875 1644.082031 572.019531 1642.59375 572.019531 1624.003906 C 572.019531 1611.035156 571.265625 1603.445312 569.832031 1602.011719 C 567.488281 1599.667969 558.824219 1599.019531 556.804688 1601.039062 M 623.917969 1601.492188 C 623.492188 1601.910156 623.144531 1604.992188 623.144531 1608.339844 L 623.144531 1614.425781 L 643.230469 1614.425781 L 643.230469 1665.550781 L 659.5625 1665.550781 L 660.578125 1615.339844 L 670.265625 1614.785156 L 679.957031 1614.230469 L 679.394531 1607.480469 L 678.835938 1600.734375 L 651.761719 1600.734375 C 636.871094 1600.734375 624.34375 1601.074219 623.917969 1601.492188 M 691.460938 1601.492188 C 691.042969 1601.910156 690.703125 1616.496094 690.703125 1633.902344 L 690.703125 1665.550781 L 707.136719 1665.550781 L 707.136719 1656.421875 C 707.136719 1647.332031 707.160156 1647.292969 713.101562 1647.292969 C 718.242188 1647.292969 719.886719 1648.550781 725.039062 1656.421875 C 730.734375 1665.121094 731.402344 1665.550781 739.160156 1665.550781 C 749.019531 1665.550781 749.4375 1663.5625 741.789062 1653.007812 L 736.277344 1645.394531 L 740.140625 1641.320312 C 750.421875 1630.488281 749.558594 1613.347656 738.351562 1605.8125 C 734.808594 1603.433594 728.386719 1602.386719 712.914062 1601.679688 C 701.527344 1601.160156 691.875 1601.074219 691.460938 1601.492188 M 782.636719 1601.632812 C 780.359375 1602.554688 777.769531 1606.144531 776.46875 1610.191406 C 775.234375 1614.027344 773.09375 1619.21875 771.710938 1621.730469 C 766.503906 1631.199219 753.273438 1663.605469 754.222656 1664.558594 C 754.773438 1665.105469 758.410156 1665.550781 762.3125 1665.550781 C 768.691406 1665.550781 769.671875 1664.910156 772.070312 1659.160156 L 774.742188 1652.769531 L 803.625 1652.769531 L 805.734375 1659.160156 C 807.773438 1665.335938 808.148438 1665.550781 817.027344 1665.550781 C 823.652344 1665.550781 825.949219 1664.914062 825.277344 1663.269531 C 819.402344 1648.914062 797.203125 1602.238281 795.757812 1601.214844 C 793.289062 1599.46875 787.558594 1599.648438 782.636719 1601.632812 M 871.328125 1603.96875 C 862.703125 1609.78125 859.683594 1615.839844 861.253906 1624.207031 C 862.785156 1632.367188 868.667969 1636.546875 883.199219 1639.800781 C 894.65625 1642.363281 898.703125 1645.8125 895.203125 1650.03125 C 893.953125 1651.539062 890.128906 1652.769531 886.703125 1652.769531 C 883.277344 1652.769531 877.527344 1651.539062 873.921875 1650.03125 C 865.171875 1646.375 864.851562 1646.445312 861.679688 1652.808594 C 859.03125 1658.117188 859.109375 1658.441406 863.746094 1661.480469 C 870.898438 1666.167969 894.566406 1666.917969 902.699219 1662.714844 C 910.960938 1658.445312 913.332031 1654.980469 913.402344 1647.082031 C 913.488281 1637.375 907.925781 1631.445312 895.539062 1628.039062 C 875.414062 1622.507812 871.828125 1618.8125 882.355469 1614.453125 C 886.816406 1612.605469 889.28125 1612.730469 896.402344 1615.15625 C 905.960938 1618.410156 907.945312 1617.523438 908.511719 1609.746094 C 908.839844 1605.234375 907.984375 1604.160156 902.507812 1602.253906 C 891.761719 1598.507812 878.332031 1599.25 871.328125 1603.96875 M 946.976562 1601.21875 C 944.804688 1602.609375 918.9375 1660.167969 918.9375 1663.601562 C 918.9375 1664.675781 922.265625 1665.550781 926.335938 1665.550781 C 933.0625 1665.550781 933.972656 1664.972656 936.402344 1659.160156 L 939.074219 1652.769531 L 967.5625 1652.769531 L 970.609375 1659.160156 C 973.441406 1665.105469 974.246094 1665.550781 982.113281 1665.550781 C 989.324219 1665.550781 990.429688 1665.078125 989.609375 1662.355469 C 988.445312 1658.523438 963.472656 1603.539062 962.515625 1602.710938 C 960.75 1601.183594 948.820312 1600.039062 946.976562 1601.21875 M 1001.558594 1601.027344 C 999.855469 1601.71875 999.277344 1610.019531 999.277344 1633.75 L 999.277344 1665.550781 L 1013.746094 1665.550781 L 1014.273438 1648.660156 L 1014.796875 1631.773438 L 1023.015625 1645.054688 C 1033.789062 1662.472656 1036.914062 1662.425781 1047.457031 1644.707031 L 1054.96875 1632.078125 L 1055.878906 1648.359375 L 1056.792969 1664.636719 L 1062.960938 1665.226562 C 1066.351562 1665.550781 1069.859375 1665.082031 1070.753906 1664.1875 C 1071.679688 1663.261719 1071.847656 1649 1071.148438 1631.191406 C 1069.929688 1600.191406 1069.867188 1599.820312 1065.785156 1599.820312 C 1058.1875 1599.820312 1056.121094 1601.875 1046.390625 1619.113281 C 1041.066406 1628.542969 1036.203125 1636.277344 1035.585938 1636.300781 C 1034.96875 1636.320312 1030.171875 1629.339844 1024.929688 1620.789062 C 1012.023438 1599.746094 1009.671875 1597.757812 1001.558594 1601.027344 M 1082.8125 1601.273438 C 1081.054688 1601.625 1079.617188 1602.132812 1079.617188 1602.402344 C 1079.617188 1602.671875 1085.65625 1616.785156 1093.035156 1633.765625 L 1106.457031 1664.636719 L 1122.4375 1664.636719 L 1135.820312 1634.71875 C 1143.179688 1618.261719 1148.769531 1603.679688 1148.246094 1602.308594 C 1147.234375 1599.671875 1138.570312 1598.957031 1135.03125 1601.214844 C 1133.875 1601.953125 1129.039062 1611.445312 1124.285156 1622.304688 C 1119.53125 1633.164062 1115.03125 1641.382812 1114.289062 1640.5625 C 1113.546875 1639.746094 1109.835938 1631.679688 1106.042969 1622.644531 C 1102.253906 1613.605469 1098.425781 1605.273438 1097.542969 1604.125 C 1095.761719 1601.824219 1087.785156 1600.277344 1082.8125 1601.273438 M 1168.792969 1612.144531 C 1155.835938 1640.578125 1147.171875 1661.097656 1147.171875 1663.351562 C 1147.171875 1665.050781 1149.414062 1665.59375 1154.777344 1665.199219 C 1161.308594 1664.71875 1162.792969 1663.796875 1165.277344 1658.691406 L 1168.171875 1652.742188 L 1182.714844 1653.214844 L 1197.257812 1653.683594 L 1198.957031 1659.617188 C 1200.570312 1665.265625 1201.082031 1665.550781 1209.519531 1665.550781 C 1214.394531 1665.550781 1218.382812 1665.015625 1218.382812 1664.355469 C 1218.382812 1663.703125 1216.425781 1658.976562 1214.03125 1653.859375 C 1207.054688 1638.941406 1200.917969 1625.210938 1196.402344 1614.425781 C 1190.660156 1600.714844 1189.753906 1599.820312 1181.566406 1599.820312 C 1174.5 1599.820312 1174.335938 1599.980469 1168.792969 1612.144531 M 1227.511719 1632.683594 L 1227.511719 1665.550781 L 1245.890625 1665.550781 C 1277.46875 1665.550781 1289.820312 1657.066406 1291.074219 1634.511719 C 1291.636719 1624.414062 1291.097656 1621.714844 1287.46875 1616.421875 C 1278.511719 1603.355469 1269.421875 1599.933594 1243.488281 1599.863281 L 1227.511719 1599.820312 Z M 219.019531 1615.644531 C 218.347656 1616.3125 217.800781 1620.464844 217.800781 1624.863281 L 217.800781 1632.867188 L 228.261719 1632.320312 C 237.917969 1631.816406 238.867188 1631.371094 240.550781 1626.558594 C 242.121094 1622.078125 241.777344 1620.863281 238.101562 1617.886719 C 233.957031 1614.53125 221.585938 1613.074219 219.019531 1615.644531 M 503.710938 1617.410156 C 501.78125 1622.441406 504.566406 1632.472656 508.21875 1633.632812 C 513.632812 1635.347656 526.34375 1631.171875 526.589844 1627.59375 C 527.242188 1618.203125 523.308594 1614.570312 512.417969 1614.484375 C 507.066406 1614.441406 504.519531 1615.300781 503.710938 1617.410156 M 707.136719 1623.359375 C 707.136719 1633.601562 709.242188 1635.28125 719.707031 1633.398438 C 728.117188 1631.882812 730.871094 1629.652344 730.871094 1624.347656 C 730.871094 1618.53125 724.289062 1614.425781 714.945312 1614.425781 L 707.136719 1614.425781 Z M 1243.945312 1632.683594 L 1243.945312 1650.945312 L 1254.128906 1650.945312 C 1262.949219 1650.945312 1265.023438 1650.230469 1269.648438 1645.605469 C 1273.714844 1641.539062 1274.984375 1638.582031 1274.984375 1633.167969 C 1274.984375 1621.542969 1265.925781 1614.425781 1251.128906 1614.425781 L 1243.945312 1614.425781 Z M 290.273438 1628.578125 C 288.5625 1633.347656 287.167969 1637.679688 287.175781 1638.207031 C 287.179688 1638.730469 290.46875 1639.292969 294.488281 1639.449219 C 298.503906 1639.605469 301.789062 1639.121094 301.789062 1638.363281 C 301.789062 1635.257812 295.875 1619.90625 294.675781 1619.90625 C 293.964844 1619.90625 291.984375 1623.808594 290.273438 1628.578125 M 785.191406 1627.691406 C 780.765625 1638.460938 781.023438 1639.21875 789.300781 1639.707031 C 793.316406 1639.945312 796.605469 1639.351562 796.605469 1638.386719 C 796.605469 1636.425781 789.722656 1619.902344 788.910156 1619.910156 C 788.621094 1619.914062 786.949219 1623.414062 785.191406 1627.691406 M 1177.511719 1628.921875 C 1175.890625 1633.878906 1174.5625 1638.34375 1174.5625 1638.835938 C 1174.5625 1639.332031 1177.847656 1639.609375 1181.867188 1639.449219 C 1185.882812 1639.289062 1189.152344 1638.320312 1189.128906 1637.292969 C 1189.078125 1634.878906 1182.292969 1619.90625 1181.253906 1619.90625 C 1180.816406 1619.90625 1179.132812 1623.960938 1177.511719 1628.921875 M 949.3125 1629.550781 C 945.277344 1640.121094 945.308594 1640.195312 953.628906 1639.707031 C 958.09375 1639.441406 960.933594 1638.375 960.933594 1636.953125 C 960.933594 1633.789062 955.078125 1621.730469 953.539062 1621.730469 C 952.859375 1621.730469 950.957031 1625.25 949.3125 1629.550781 " fill-opacity="1" fill-rule="evenodd"/></g></svg>