<svg xmlns="http://www.w3.org/2000/svg" xmlns:xlink="http://www.w3.org/1999/xlink" width="2000" zoomAndPan="magnify" viewBox="0 0 1500 1499.999933" height="2000" preserveAspectRatio="xMidYMid meet" version="1.0"><defs><clipPath id="30d97feda0"><path d="M 25 56 L 1465 56 L 1465 1479.75 L 25 1479.75 Z M 25 56 " clip-rule="nonzero"/></clipPath></defs><g clip-path="url(#30d97feda0)"><path fill="#f14902" d="M 736.855469 62.164062 C 734.871094 65.335938 723.902344 81.8125 712.480469 98.777344 C 675.257812 154.042969 648.957031 203.917969 623.855469 266.84375 C 601.757812 322.234375 580.773438 398.875 580.773438 424.199219 C 580.773438 432.761719 606.882812 502.941406 612.269531 508.859375 C 616.011719 512.96875 617.183594 508.402344 619.441406 481 C 623.859375 427.296875 639.363281 355.523438 656.472656 309.585938 C 676.488281 255.835938 735.589844 143.398438 744.058594 142.953125 C 746.152344 142.84375 766.988281 176.605469 783.246094 206.460938 C 832.226562 296.382812 860.445312 390.527344 870.246094 496.707031 C 871.484375 510.125 872.328125 512.589844 874.769531 509.914062 C 880.410156 503.730469 907.339844 433.765625 907.339844 425.300781 C 907.339844 395.261719 882.820312 309.128906 856.316406 246.082031 C 834.253906 193.601562 790.660156 117.339844 754.398438 67.792969 C 744.957031 54.890625 741.988281 53.9375 736.855469 62.164062 M 1054.496094 228.507812 C 1023.917969 283.855469 1015.050781 300.511719 993.011719 343.992188 C 893.578125 540.160156 839.007812 698.542969 804.203125 892.015625 C 797.742188 927.914062 787.289062 998.726562 787.242188 1006.898438 C 787.1875 1016.929688 784.484375 1019.304688 774.914062 1017.753906 L 766.347656 1016.363281 L 765.074219 684.652344 L 763.800781 352.9375 L 754.890625 331.925781 C 749.988281 320.371094 745.148438 310.917969 744.140625 310.917969 C 741.816406 310.917969 727.390625 342.964844 725.910156 351.417969 C 725.296875 354.894531 724.347656 362.0625 723.796875 367.347656 C 723.242188 372.628906 722.710938 520.8125 722.617188 696.644531 L 722.445312 1016.335938 L 714.640625 1017.550781 C 710.347656 1018.222656 705.871094 1017.867188 704.695312 1016.761719 C 703.515625 1015.660156 699.523438 992.8125 695.8125 965.992188 C 667.230469 759.117188 609.425781 575.59375 509.511719 374.550781 C 483.886719 322.988281 425.21875 212.625 420.964844 207.984375 C 418.453125 205.242188 417.511719 205.535156 415.246094 209.769531 C 409.308594 220.863281 388.148438 281.542969 377.71875 317.386719 C 355.746094 392.898438 349.195312 436.832031 349.113281 509.195312 L 349.054688 562.195312 L 375.40625 590.425781 C 389.894531 605.949219 402.136719 617.511719 402.601562 616.117188 C 403.066406 614.722656 401.804688 603.5625 399.800781 591.316406 C 391.378906 539.933594 392.625 475.492188 403.234375 413.25 C 410.617188 369.925781 423.632812 322.167969 427.683594 323.519531 C 429.097656 323.992188 435.367188 333.320312 441.617188 344.25 C 448.503906 356.296875 453.546875 362.863281 454.421875 360.933594 C 455.214844 359.175781 455.324219 359.96875 454.667969 362.691406 C 453.894531 365.878906 462.125 385.140625 477.75 416.71875 C 549.378906 561.511719 603.53125 715.363281 634.472656 862 C 645.890625 916.105469 657.433594 983.597656 661.214844 1018.363281 L 662.8125 1033.054688 L 654.082031 1038.445312 C 649.28125 1041.414062 644.78125 1043.273438 644.085938 1042.574219 C 643.390625 1041.875 633.382812 1020.953125 621.855469 996.078125 C 546.433594 833.34375 441.371094 699.085938 251.972656 523.425781 C 226.339844 499.652344 198.304688 473.453125 189.675781 465.195312 C 181.046875 456.941406 172.585938 450.1875 170.871094 450.1875 C 168.410156 450.1875 167.769531 462.089844 167.808594 507.21875 C 167.890625 607.171875 179.085938 683.015625 203.78125 750.90625 C 215.394531 782.832031 217.613281 785.21875 254.074219 804.972656 C 271.75 814.546875 287.03125 822.378906 288.035156 822.378906 C 289.035156 822.378906 284.410156 812.589844 277.75 800.628906 C 244.199219 740.335938 223.925781 666.574219 216.90625 579.253906 C 215.640625 563.515625 215.941406 558.246094 218.113281 558.246094 C 219.707031 558.246094 254.746094 592.011719 295.980469 633.28125 C 429.851562 767.28125 497.492188 852.644531 558.421875 964.5 C 573.601562 992.363281 609.707031 1068.15625 609.484375 1071.6875 C 609.429688 1072.582031 605.289062 1077.972656 600.285156 1083.664062 L 591.191406 1094.019531 L 552.964844 1056 C 461.332031 964.859375 378.578125 910.402344 167.761719 802.511719 C 52.074219 743.300781 30.820312 732.800781 29.441406 734.179688 C 25.738281 737.886719 62.496094 841.636719 82.542969 884.054688 C 120.492188 964.34375 158.320312 1016.867188 211.386719 1062.953125 C 253.484375 1099.511719 290.378906 1116.019531 363.460938 1130.984375 C 399.011719 1138.261719 423.34375 1144.914062 439.328125 1151.722656 L 450.359375 1156.425781 L 470.960938 1141.28125 C 482.292969 1132.953125 491.644531 1125.460938 491.746094 1124.632812 C 491.976562 1122.726562 471.738281 1113.96875 449.96875 1106.554688 C 440.757812 1103.414062 415.367188 1097.054688 393.542969 1092.417969 C 328.570312 1078.625 302.390625 1068.953125 266.210938 1045.375 C 240.351562 1028.527344 195.734375 981.738281 172.921875 947.542969 C 146.84375 908.457031 111.421875 837.09375 115.886719 832.632812 C 117.445312 831.074219 137.9375 841.023438 207.378906 877.058594 C 341.308594 946.5625 414.109375 992.375 487.621094 1053.402344 C 511.210938 1072.980469 568.765625 1130.605469 568.765625 1134.640625 C 568.765625 1135.585938 561.472656 1138.179688 552.558594 1140.40625 C 482.4375 1157.90625 432.050781 1218.582031 427.820312 1290.621094 C 420.808594 1409.867188 542.21875 1496.890625 651.890625 1451.234375 C 679.921875 1439.5625 686.835938 1434.214844 789.683594 1344.648438 C 889.480469 1257.738281 883.296875 1261.988281 905.691406 1264.945312 C 924.695312 1267.449219 937.613281 1289.878906 931.605469 1309.9375 C 923.351562 1337.484375 892.492188 1344.601562 870.238281 1324.089844 C 864.597656 1318.890625 859.210938 1314.632812 858.273438 1314.632812 C 854.441406 1314.632812 825.761719 1340.117188 825.730469 1343.550781 C 825.683594 1349.179688 844.488281 1366.132812 859.316406 1373.820312 C 871.382812 1380.078125 874.703125 1380.667969 897.738281 1380.667969 C 920.402344 1380.667969 924.171875 1380.023438 935.050781 1374.277344 C 949.777344 1366.507812 965.996094 1349.398438 972.988281 1334.265625 C 977.148438 1325.253906 978.175781 1318.535156 978.175781 1300.226562 C 978.179688 1280.5625 977.300781 1275.542969 971.8125 1263.835938 C 963.867188 1246.890625 948.554688 1231.710938 931.355469 1223.726562 C 914.269531 1215.800781 885.894531 1215.007812 867.882812 1221.953125 C 854.769531 1227.011719 797.078125 1274.214844 709.238281 1351.761719 C 648.183594 1405.660156 629.917969 1415.5625 591.742188 1415.429688 C 558.929688 1415.3125 531.902344 1404.339844 509.839844 1382.175781 C 463.753906 1335.878906 463.859375 1264.15625 510.078125 1216.980469 C 532.074219 1194.53125 557.785156 1184.214844 591.679688 1184.238281 C 624.410156 1184.257812 645.765625 1193.285156 673.132812 1218.660156 L 691.457031 1235.652344 L 703.542969 1225.316406 C 710.183594 1219.632812 717.699219 1213.5 720.234375 1211.6875 C 722.769531 1209.875 724.769531 1206.632812 724.675781 1204.484375 C 724.445312 1199.210938 690.148438 1169.148438 671.46875 1157.84375 C 663.1875 1152.835938 649.117188 1146.515625 640.203125 1143.804688 C 629.761719 1140.632812 623.996094 1137.617188 623.996094 1135.339844 C 623.996094 1124.050781 657.820312 1089.792969 681.34375 1077.253906 C 709.519531 1062.238281 746.9375 1058.523438 781.355469 1067.328125 C 803.824219 1073.074219 823.566406 1085.199219 842.746094 1105.03125 C 855.238281 1117.945312 868.210938 1136.175781 866.195312 1137.976562 C 865.714844 1138.40625 858.835938 1140.59375 850.914062 1142.84375 C 824.023438 1150.46875 812.828125 1158.195312 746.328125 1214.984375 C 738.597656 1221.585938 712.566406 1243.738281 688.480469 1264.207031 C 664.394531 1284.679688 638.140625 1307.253906 630.140625 1314.375 C 610.550781 1331.808594 602.859375 1336.226562 592.058594 1336.234375 C 559.613281 1336.269531 542.460938 1295.308594 565.710938 1273.320312 C 581.117188 1258.75 602.59375 1260.066406 620.625 1276.683594 C 632.691406 1287.808594 631.996094 1287.980469 653.886719 1268.429688 L 665.769531 1257.820312 L 654.457031 1245.722656 C 648.234375 1239.070312 636.402344 1229.988281 628.167969 1225.542969 C 614.179688 1217.992188 611.675781 1217.453125 590.378906 1217.421875 C 571.46875 1217.390625 565.675781 1218.316406 556.511719 1222.832031 C 541.207031 1230.371094 523.542969 1248.476562 516.144531 1264.207031 C 510.792969 1275.59375 509.949219 1280.558594 510.046875 1300.226562 C 510.144531 1320.015625 511.023438 1324.835938 516.703125 1336.589844 C 524.378906 1352.476562 540.539062 1368.257812 556.335938 1375.289062 C 571.714844 1382.125 599.859375 1383.644531 617.308594 1378.570312 C 633.296875 1373.921875 644.214844 1365.789062 700.132812 1316.890625 C 823.683594 1208.84375 833.753906 1200.644531 852.003906 1193.226562 C 900.167969 1173.65625 953.609375 1185.945312 984.511719 1223.691406 C 1024.0625 1272 1021.621094 1338.679688 978.695312 1382.644531 C 956.800781 1405.070312 929.378906 1415.941406 895.039062 1415.8125 C 865.578125 1415.699219 834.890625 1402.011719 811.292969 1378.464844 C 805.347656 1372.535156 798.742188 1367.628906 796.613281 1367.570312 C 794.484375 1367.511719 785.835938 1373.851562 777.402344 1381.664062 L 762.066406 1395.863281 L 772.871094 1407.042969 C 796.839844 1431.84375 829.609375 1451.53125 859.316406 1458.976562 C 866.828125 1460.859375 884.433594 1462.261719 900.136719 1462.226562 C 931.261719 1462.15625 949.746094 1457.5 976.183594 1443.078125 C 1031.128906 1413.113281 1064.101562 1353.832031 1060.320312 1291.824219 C 1057.734375 1249.429688 1041.367188 1213.453125 1010.59375 1182.496094 C 990.921875 1162.714844 965.601562 1148.277344 936.757812 1140.40625 C 928.503906 1138.152344 921.75 1135.398438 921.75 1134.289062 C 921.75 1130.105469 951.140625 1098.34375 976.203125 1075.441406 C 1056.289062 1002.246094 1129.015625 955.671875 1303.0625 866.117188 C 1369.933594 831.707031 1375.582031 828.96875 1375.582031 830.949219 C 1375.582031 834.609375 1346.9375 894.921875 1336.644531 912.9375 C 1294.386719 986.882812 1240.351562 1041.199219 1183.414062 1066.953125 C 1161.941406 1076.664062 1140.359375 1083.019531 1104.679688 1090.136719 C 1053.535156 1100.339844 998.589844 1118.351562 998.589844 1124.917969 C 998.589844 1126.589844 1010.21875 1135.882812 1036.148438 1154.933594 C 1038.367188 1156.566406 1041.050781 1156.285156 1044.636719 1154.042969 C 1053.679688 1148.398438 1082.433594 1139.558594 1107.628906 1134.675781 C 1194.9375 1117.765625 1226.8125 1104.398438 1277.132812 1063.582031 C 1333.632812 1017.753906 1391.257812 929.179688 1428.589844 830.785156 C 1444.058594 790.003906 1461.964844 734.273438 1460.175781 732.480469 C 1458.109375 730.414062 1218.078125 854.03125 1169.078125 882.394531 C 1067.820312 941 1002.589844 989.433594 935.804688 1055.578125 C 914.480469 1076.695312 896.167969 1093.109375 895.105469 1092.046875 C 894.046875 1090.984375 890.046875 1085.910156 886.21875 1080.769531 L 879.25 1071.421875 L 883.878906 1059.160156 C 891.449219 1039.105469 927.316406 966.375 942.195312 940.902344 C 962.765625 905.683594 1002.792969 846.316406 1026.148438 816.378906 C 1074.757812 754.070312 1120.132812 704.730469 1209.449219 617.074219 C 1260.769531 566.707031 1269.171875 559.085938 1271.164062 561.082031 C 1271.644531 561.558594 1270.988281 573.816406 1269.703125 588.316406 C 1262.5625 668.941406 1241.71875 743.097656 1210.316406 799.570312 C 1203.710938 811.453125 1199.242188 821.523438 1200.390625 821.945312 C 1203.332031 823.023438 1265.964844 789.667969 1270.582031 784.566406 C 1280.980469 773.074219 1301.335938 704.117188 1310.453125 649.492188 C 1318.164062 603.285156 1320.351562 571.855469 1320.351562 507.132812 C 1320.355469 447.8125 1320.339844 447.625 1315.414062 450.261719 C 1308.945312 453.726562 1201.628906 554.292969 1156.765625 598.933594 C 1011.648438 743.339844 926.804688 861.570312 856.007812 1018.039062 C 850.042969 1031.222656 844.296875 1042.292969 843.234375 1042.640625 C 842.175781 1042.988281 837.722656 1041.089844 833.335938 1038.417969 C 824.308594 1032.910156 824.332031 1034.0625 832.074219 982.0625 C 861.3125 785.6875 912.976562 620.984375 1006.820312 424.976562 C 1029.203125 378.226562 1058.59375 322.921875 1061.058594 322.921875 C 1063.136719 322.921875 1063.566406 324.3125 1072.933594 361.34375 C 1090.054688 429.035156 1096.613281 493.851562 1092.230469 552.007812 C 1090.828125 570.625 1088.207031 592.882812 1086.410156 601.464844 C 1084.613281 610.050781 1083.609375 617.566406 1084.179688 618.167969 C 1084.753906 618.769531 1096.59375 607.886719 1110.496094 593.988281 C 1130.460938 574.019531 1136.230469 566.726562 1137.957031 559.273438 C 1140.875 546.703125 1140.777344 478.746094 1137.800781 450.1875 C 1130.769531 382.679688 1112.070312 310.152344 1080.226562 226.875 C 1075.933594 215.648438 1071.621094 205.578125 1070.636719 204.492188 C 1069.65625 203.414062 1062.390625 214.21875 1054.496094 228.507812 M 419.726562 1528.078125 C 393.757812 1536.390625 381.308594 1551.496094 380.628906 1575.523438 L 380.269531 1588.335938 L 203.578125 1588.355469 C 106.398438 1588.367188 26.421875 1588.839844 25.855469 1589.40625 C 25.289062 1589.976562 25.21875 1595.378906 25.699219 1601.410156 C 26.566406 1612.355469 26.597656 1612.386719 35.648438 1612.386719 L 44.730469 1612.386719 L 45.761719 1643.003906 C 46.90625 1677.03125 50.910156 1689.148438 64.097656 1698.539062 C 78.105469 1708.515625 103.699219 1710.28125 116.648438 1702.164062 C 119.574219 1700.332031 122.542969 1698.832031 123.253906 1698.832031 C 123.960938 1698.832031 124.539062 1710.179688 124.539062 1724.046875 L 124.539062 1749.257812 L 139.546875 1749.261719 L 154.554688 1749.261719 L 154.554688 1613.589844 L 171.960938 1612.882812 L 189.371094 1612.175781 L 189.371094 1749.257812 L 220.585938 1749.257812 L 220.585938 1612.386719 L 311.835938 1612.386719 L 311.835938 1633.566406 L 295.199219 1636.371094 C 262.867188 1641.824219 247 1658.429688 247 1686.808594 C 247 1703.765625 250.652344 1713.828125 261.136719 1725.769531 C 280.367188 1747.675781 316.558594 1752.273438 349.144531 1736.957031 C 356.101562 1733.6875 359.859375 1730.378906 359.859375 1727.519531 C 359.859375 1723.742188 351.007812 1706.035156 349.117188 1706.035156 C 348.753906 1706.035156 343.300781 1708.917969 337 1712.441406 C 319.121094 1722.433594 296.089844 1721.164062 284.46875 1709.546875 C 277.789062 1702.863281 275.234375 1688.066406 279.148438 1678.695312 C 284.207031 1666.589844 291.746094 1662.898438 318.222656 1659.578125 L 341.851562 1656.617188 L 342.542969 1634.503906 L 343.230469 1612.386719 L 381.46875 1612.386719 L 381.46875 1749.257812 L 412.6875 1749.257812 L 412.6875 1612.320312 L 485.324219 1612.953125 L 557.960938 1613.589844 L 558.234375 1625.152344 L 558.5 1636.710938 L 549.53125 1635.195312 C 539.890625 1633.566406 527.050781 1637.636719 520.191406 1644.496094 C 516.511719 1648.179688 515.601562 1648.03125 507.347656 1642.429688 C 500.339844 1637.675781 495.460938 1636.402344 484.292969 1636.402344 C 466.796875 1636.402344 454.574219 1642.277344 446.304688 1654.667969 C 437.894531 1667.261719 437.628906 1697.011719 445.777344 1713.550781 C 452.144531 1726.472656 470.359375 1745.296875 480.597656 1749.539062 C 488.84375 1752.953125 492.382812 1751.34375 500.914062 1740.28125 L 506.707031 1732.765625 L 498.714844 1728.726562 C 480.558594 1719.542969 470.316406 1703.792969 470.316406 1685.054688 C 470.316406 1670.097656 475.292969 1662.800781 485.460938 1662.851562 C 498.164062 1662.914062 500.214844 1665.71875 501.53125 1684.847656 L 502.734375 1702.261719 L 529.148438 1702.433594 L 530.347656 1686.085938 C 531.363281 1672.25 532.46875 1669.03125 537.550781 1665.128906 C 540.851562 1662.59375 545.175781 1660.511719 547.15625 1660.503906 C 555.945312 1660.464844 556.632812 1663.558594 557.304688 1706.140625 L 557.960938 1748.058594 L 587.976562 1749.488281 L 587.976562 1612.386719 L 618.636719 1612.386719 L 619.644531 1644.203125 C 620.78125 1680.070312 623.101562 1687.039062 637.578125 1698.082031 C 644.9375 1703.691406 649.195312 1704.925781 663.835938 1705.660156 C 676.53125 1706.304688 683.429688 1705.488281 689.0625 1702.679688 C 693.324219 1700.550781 696.914062 1699.085938 697.035156 1699.421875 C 697.160156 1699.757812 696.90625 1709.507812 696.46875 1721.085938 L 695.675781 1742.140625 L 686.414062 1746.863281 C 681.316406 1749.464844 676.503906 1752.636719 675.714844 1753.910156 C 674.929688 1755.183594 677.367188 1759.683594 681.140625 1763.90625 L 688 1771.582031 L 698.925781 1767.414062 C 709.046875 1763.546875 710.402344 1763.523438 717.347656 1767.117188 C 733.433594 1775.433594 722.847656 1794.941406 702.3125 1794.828125 C 688.84375 1794.757812 674.457031 1787.75 659.984375 1774.210938 L 647.859375 1762.871094 L 639.527344 1770.941406 C 634.949219 1775.382812 631.199219 1779.683594 631.199219 1780.503906 C 631.199219 1784.730469 654.777344 1804.675781 666.722656 1810.554688 C 684.664062 1819.386719 712.386719 1821.554688 728.53125 1815.390625 C 757.96875 1804.148438 762.507812 1763.984375 736.253906 1747.054688 L 727.25 1741.25 L 727.25 1612.386719 L 840.105469 1612.386719 L 840.105469 1661.023438 L 829.15625 1650.929688 C 823.132812 1645.378906 814.523438 1639.300781 810.023438 1637.417969 C 797.109375 1632.023438 776.097656 1633.101562 761.464844 1639.914062 C 747.816406 1646.269531 747.0625 1647.730469 752.371094 1657.53125 C 759.476562 1670.640625 759.214844 1670.527344 770.65625 1665.335938 C 783.171875 1659.660156 794.609375 1659.113281 803.613281 1663.769531 C 812.085938 1668.148438 819.355469 1676.289062 817.492188 1679.304688 C 816.683594 1680.613281 804.152344 1689.511719 789.640625 1699.074219 C 775.136719 1708.632812 763.265625 1717.722656 763.265625 1719.265625 C 763.265625 1724.058594 776.3125 1739.554688 779.433594 1738.46875 C 781.058594 1737.902344 794.796875 1728.753906 809.960938 1718.132812 C 825.125 1707.515625 838.109375 1698.832031 838.816406 1698.832031 C 839.527344 1698.832031 840.105469 1710.179688 840.105469 1724.046875 L 840.105469 1749.257812 L 868.847656 1749.257812 L 869.484375 1681.421875 L 870.121094 1613.589844 L 881.527344 1612.855469 L 892.933594 1612.125 L 892.933594 1588.375 L 410.285156 1588.375 L 410.285156 1580.933594 C 410.285156 1576.84375 411.988281 1569.902344 414.070312 1565.511719 C 426.273438 1539.796875 496.601562 1544.117188 551.429688 1573.957031 L 565.164062 1581.429688 L 571.769531 1573.589844 C 575.398438 1569.273438 578.371094 1564.488281 578.371094 1562.953125 C 578.371094 1559.523438 550.789062 1544.808594 528.980469 1536.601562 C 493.097656 1523.09375 446.632812 1519.46875 419.726562 1528.078125 M 1071.71875 1538.070312 C 1069.21875 1540.832031 1067.265625 1546.574219 1067.265625 1551.15625 C 1067.265625 1562.488281 1073.929688 1569.164062 1085.230469 1569.164062 C 1095.386719 1569.164062 1104.242188 1560.777344 1104.242188 1551.15625 C 1104.242188 1548.210938 1102.003906 1542.953125 1099.265625 1539.472656 C 1092.878906 1531.355469 1078.464844 1530.617188 1071.71875 1538.070312 M 939.511719 1591.75 C 938.804688 1593.601562 938.566406 1598.738281 938.988281 1603.15625 L 939.757812 1611.1875 L 966.542969 1611.863281 C 985.894531 1612.355469 994.097656 1613.472656 996.113281 1615.902344 C 1000.96875 1621.75 1001.941406 1643.875 997.785156 1653.828125 C 994.675781 1661.273438 992.839844 1662.8125 987.078125 1662.8125 C 983.171875 1662.8125 978.214844 1660.707031 975.777344 1658.011719 C 973.386719 1655.371094 970.304688 1653.210938 968.929688 1653.210938 C 965.464844 1653.210938 948.164062 1665.417969 948.164062 1667.863281 C 948.164062 1670.304688 980.527344 1716.132812 996.746094 1736.652344 C 1003.269531 1744.90625 1010.257812 1751.660156 1012.277344 1751.660156 C 1017.132812 1751.660156 1034.609375 1741.765625 1034.609375 1739.011719 C 1034.609375 1737.828125 1026.503906 1726.59375 1016.597656 1714.050781 C 1006.691406 1701.511719 998.589844 1690.433594 998.589844 1689.441406 C 998.589844 1685.75 1014.5625 1682.5625 1019.277344 1685.3125 C 1021.765625 1686.765625 1034.335938 1687.96875 1047.210938 1687.988281 L 1070.625 1688.027344 L 1070.625 1749.257812 L 1099.367188 1749.257812 L 1100.003906 1681.421875 L 1100.640625 1613.589844 L 1155.269531 1612.941406 L 1209.898438 1612.296875 L 1210.121094 1636.957031 C 1210.574219 1687.113281 1209.433594 1691.132812 1192.296875 1699.648438 C 1184.367188 1703.589844 1182.316406 1703.71875 1173.292969 1700.851562 C 1157.070312 1695.691406 1151.378906 1675.503906 1162.242188 1661.6875 C 1167.140625 1655.460938 1168.292969 1655.160156 1183.855469 1656.039062 L 1200.292969 1656.96875 L 1200.292969 1644.585938 C 1200.292969 1632.632812 1200.027344 1632.144531 1192.789062 1630.699219 C 1159.78125 1624.097656 1134.601562 1638.160156 1127.96875 1666.894531 C 1122.777344 1689.375 1131.890625 1711.105469 1150.667969 1721.042969 C 1163.789062 1727.984375 1193.519531 1728.664062 1203.316406 1722.246094 C 1206.84375 1719.933594 1210.382812 1718.042969 1211.183594 1718.042969 C 1211.984375 1718.042969 1212.359375 1724.796875 1212.019531 1733.050781 L 1211.394531 1748.058594 L 1226.214844 1748.769531 L 1241.039062 1749.488281 L 1241.675781 1681.535156 L 1242.316406 1613.589844 L 1258.523438 1612.878906 C 1270.464844 1612.355469 1274.796875 1612.988281 1274.980469 1615.277344 C 1275.117188 1616.992188 1275.03125 1645.945312 1274.792969 1679.621094 C 1274.554688 1713.300781 1275.097656 1742.746094 1276.003906 1745.058594 C 1277.308594 1748.398438 1280.542969 1749.257812 1291.757812 1749.257812 L 1305.871094 1749.257812 L 1306.507812 1681.421875 L 1307.148438 1613.589844 L 1354.722656 1612.9375 L 1402.292969 1612.285156 L 1401.546875 1621.34375 L 1400.796875 1630.398438 L 1386.050781 1632.023438 C 1352.671875 1635.707031 1333.394531 1654.625 1333.730469 1683.375 C 1334.15625 1719.835938 1361.023438 1742.25 1400.511719 1739.082031 L 1415.742188 1737.859375 L 1421.070312 1748.960938 C 1424 1755.066406 1427.898438 1762.40625 1429.734375 1765.273438 L 1433.070312 1770.484375 L 1446.34375 1765.273438 C 1453.644531 1762.40625 1459.621094 1759.136719 1459.621094 1757.996094 C 1459.625 1756.859375 1454.765625 1748.976562 1448.820312 1740.472656 C 1438.324219 1725.457031 1438.117188 1724.8125 1441.613281 1718.046875 C 1451.285156 1699.34375 1442.335938 1679.621094 1424.175781 1679.621094 C 1410.484375 1679.621094 1406.007812 1684.066406 1404.488281 1699.175781 C 1403.203125 1712 1403.171875 1712.042969 1394.335938 1712.777344 C 1375.835938 1714.3125 1361.429688 1698.589844 1364.425781 1680.121094 C 1367.050781 1663.941406 1378.34375 1657.980469 1410.402344 1655.847656 L 1432.011719 1654.410156 L 1432.707031 1633.398438 L 1433.398438 1612.386719 L 1464.429688 1612.386719 L 1464.429688 1588.375 L 1202.621094 1588.375 C 980 1588.375 940.617188 1588.878906 939.511719 1591.75 M 76.910156 1641.421875 C 77.660156 1668.550781 78.085938 1670.753906 83.382812 1675.039062 C 91.578125 1681.667969 107.042969 1681.109375 116.109375 1673.855469 C 123.222656 1668.160156 123.292969 1667.863281 124.171875 1640.25 L 125.054688 1612.386719 L 76.113281 1612.386719 Z M 650.808594 1641.144531 C 651.699219 1673.199219 654.273438 1678.832031 668.417969 1679.691406 C 680.949219 1680.457031 683.222656 1679.773438 689.703125 1673.292969 C 695.800781 1667.195312 696.03125 1665.953125 696.03125 1639.675781 L 696.03125 1612.386719 L 650.007812 1612.386719 Z M 1029.015625 1620.191406 C 1030.109375 1624.484375 1030.84375 1635.832031 1030.644531 1645.40625 L 1030.28125 1662.8125 L 1045.117188 1662.8125 C 1068.226562 1662.8125 1070.625 1660.089844 1070.625 1633.863281 L 1070.625 1612.386719 L 1027.023438 1612.386719 Z M 30.089844 1858.917969 C 29.207031 1859.796875 28.488281 1879.246094 28.488281 1902.136719 L 28.488281 1943.757812 L 49.835938 1943.757812 L 50.566406 1932.351562 L 51.300781 1920.949219 L 68.21875 1919.628906 C 94.449219 1917.582031 104.820312 1906.96875 102.3125 1884.738281 C 100.707031 1870.496094 93.625 1863.09375 78.507812 1859.851562 C 65.398438 1857.039062 32.597656 1856.40625 30.089844 1858.917969 M 139.335938 1860.703125 C 138.261719 1862.144531 135.152344 1868.71875 132.429688 1875.324219 C 129.703125 1881.925781 122.042969 1899.398438 115.40625 1914.148438 C 108.769531 1928.898438 103.964844 1941.59375 104.730469 1942.363281 C 105.5 1943.128906 110.324219 1943.757812 115.457031 1943.757812 C 123.847656 1943.757812 125.136719 1942.914062 128.292969 1935.355469 L 131.804688 1926.949219 L 170.097656 1926.949219 L 173.609375 1935.355469 C 176.910156 1943.257812 177.789062 1943.757812 188.328125 1943.757812 C 197.894531 1943.757812 199.347656 1943.144531 198.238281 1939.558594 C 194.457031 1927.316406 163.183594 1861.339844 160.324219 1859.570312 C 155.75 1856.746094 141.730469 1857.5 139.335938 1860.703125 M 198.238281 1858.855469 C 197.324219 1859.769531 196.574219 1864.117188 196.574219 1868.519531 C 196.574219 1876.496094 196.613281 1876.523438 208.300781 1876.523438 C 222.761719 1876.523438 222.910156 1876.925781 222.953125 1915.542969 L 222.988281 1943.757812 L 244.601562 1943.757812 L 244.601562 1876.523438 L 271.304688 1876.523438 L 269.8125 1858.515625 L 234.855469 1857.851562 C 215.632812 1857.488281 199.152344 1857.9375 198.238281 1858.855469 M 284.621094 1858.917969 C 283.738281 1859.796875 283.019531 1879.277344 283.019531 1902.207031 L 283.019531 1943.898438 L 314.835938 1943.226562 L 346.652344 1942.558594 L 346.652344 1925.75 L 326.636719 1924.550781 L 306.617188 1923.347656 L 306.050781 1893.1875 C 305.734375 1876.601562 304.683594 1861.746094 303.714844 1860.171875 C 301.84375 1857.152344 287.339844 1856.195312 284.621094 1858.917969 M 360.921875 1860.40625 C 360.269531 1862.109375 360.035156 1881.289062 360.398438 1903.027344 L 361.058594 1942.558594 L 371.152344 1943.289062 L 381.246094 1944.023438 L 381.957031 1903.671875 C 382.347656 1881.476562 381.726562 1861.96875 380.578125 1860.316406 C 377.820312 1856.367188 362.445312 1856.441406 360.921875 1860.40625 M 404.273438 1860.066406 C 403.550781 1861.957031 403.257812 1881.289062 403.621094 1903.027344 L 404.28125 1942.558594 L 414.160156 1943.28125 L 424.042969 1944.003906 L 425.652344 1931.875 L 427.257812 1919.746094 L 440.460938 1919.746094 C 465.648438 1919.746094 477.921875 1909.914062 477.921875 1889.730469 C 477.921875 1867.328125 466.578125 1859.742188 430.328125 1857.894531 C 410.25 1856.867188 405.347656 1857.277344 404.273438 1860.066406 M 495.929688 1858.917969 C 493.472656 1861.371094 494.03125 1916.25 496.582031 1922.957031 C 504.398438 1943.519531 537.371094 1951.46875 558.214844 1937.808594 C 568.480469 1931.085938 571.167969 1920.621094 571.167969 1887.40625 L 571.167969 1857.316406 L 563.242188 1857.316406 C 550.757812 1857.316406 549.558594 1860.1875 549.558594 1890.035156 C 549.558594 1916.304688 549.394531 1917.125 543.230469 1921.972656 C 534.921875 1928.507812 529.035156 1928.257812 521.835938 1921.054688 C 516.300781 1915.523438 515.941406 1913.570312 515.941406 1889.117188 C 515.941406 1872.066406 514.945312 1862.082031 513.058594 1860.195312 C 509.976562 1857.117188 498.582031 1856.261719 495.929688 1858.917969 M 584.191406 1859.515625 C 583.628906 1860.066406 583.175781 1864.117188 583.175781 1868.519531 L 583.175781 1876.523438 L 609.589844 1876.523438 L 609.589844 1943.757812 L 631.066406 1943.757812 L 631.730469 1910.742188 L 632.398438 1877.726562 L 645.144531 1876.996094 L 657.886719 1876.265625 L 657.148438 1867.390625 L 656.414062 1858.515625 L 620.808594 1858.515625 C 601.226562 1858.515625 584.75 1858.964844 584.191406 1859.515625 M 673.015625 1859.515625 C 672.46875 1860.066406 672.019531 1879.246094 672.019531 1902.136719 L 672.019531 1943.757812 L 693.632812 1943.757812 L 693.632812 1931.753906 C 693.632812 1919.796875 693.664062 1919.746094 701.472656 1919.746094 C 708.234375 1919.746094 710.398438 1921.402344 717.175781 1931.753906 C 724.664062 1943.191406 725.542969 1943.757812 735.746094 1943.757812 C 748.714844 1943.757812 749.261719 1941.144531 739.203125 1927.261719 L 731.953125 1917.25 L 737.035156 1911.894531 C 750.558594 1897.648438 749.421875 1875.105469 734.683594 1865.199219 C 730.023438 1862.066406 721.578125 1860.691406 701.230469 1859.761719 C 686.257812 1859.078125 673.558594 1858.964844 673.015625 1859.515625 M 792.921875 1859.703125 C 789.925781 1860.910156 786.523438 1865.628906 784.808594 1870.957031 C 783.183594 1876 780.371094 1882.828125 778.554688 1886.128906 C 771.707031 1898.585938 754.304688 1941.199219 755.558594 1942.453125 C 756.277344 1943.171875 761.058594 1943.757812 766.191406 1943.757812 C 774.582031 1943.757812 775.871094 1942.914062 779.027344 1935.355469 L 782.542969 1926.949219 L 820.523438 1926.949219 L 823.296875 1935.355469 C 825.976562 1943.476562 826.476562 1943.757812 838.148438 1943.757812 C 846.863281 1943.757812 849.886719 1942.921875 849 1940.757812 C 841.273438 1921.875 812.078125 1860.496094 810.179688 1859.152344 C 806.929688 1856.851562 799.394531 1857.089844 792.921875 1859.703125 M 909.558594 1862.773438 C 898.21875 1870.414062 894.25 1878.386719 896.3125 1889.386719 C 898.324219 1900.117188 906.0625 1905.617188 925.175781 1909.890625 C 940.238281 1913.261719 945.5625 1917.800781 940.960938 1923.347656 C 939.3125 1925.328125 934.285156 1926.949219 929.78125 1926.949219 C 925.277344 1926.949219 917.714844 1925.328125 912.976562 1923.347656 C 901.464844 1918.539062 901.046875 1918.632812 896.871094 1927 C 893.386719 1933.980469 893.492188 1934.410156 899.589844 1938.40625 C 909 1944.570312 940.125 1945.554688 950.820312 1940.027344 C 961.683594 1934.414062 964.804688 1929.855469 964.894531 1919.472656 C 965.007812 1906.703125 957.691406 1898.902344 941.402344 1894.425781 C 914.933594 1887.148438 910.222656 1882.292969 924.0625 1876.5625 C 929.933594 1874.128906 933.175781 1874.292969 942.539062 1877.484375 C 955.105469 1881.765625 957.71875 1880.597656 958.464844 1870.371094 C 958.894531 1864.433594 957.769531 1863.023438 950.5625 1860.515625 C 936.433594 1855.589844 918.773438 1856.5625 909.5625 1862.773438 M 1009.046875 1859.15625 C 1006.195312 1860.984375 972.175781 1936.679688 972.175781 1941.199219 C 972.175781 1942.605469 976.554688 1943.757812 981.902344 1943.757812 C 990.75 1943.757812 991.945312 1943 995.140625 1935.355469 L 998.652344 1926.949219 L 1036.121094 1926.949219 L 1040.128906 1935.355469 C 1043.855469 1943.171875 1044.910156 1943.757812 1055.257812 1943.757812 C 1064.738281 1943.757812 1066.195312 1943.136719 1065.113281 1939.558594 C 1063.585938 1934.515625 1030.746094 1862.203125 1029.484375 1861.117188 C 1027.164062 1859.105469 1011.472656 1857.601562 1009.046875 1859.15625 M 1080.832031 1858.90625 C 1078.589844 1859.808594 1077.832031 1870.726562 1077.832031 1901.9375 L 1077.832031 1943.757812 L 1096.859375 1943.757812 L 1098.242188 1899.335938 L 1109.046875 1916.804688 C 1123.214844 1939.710938 1127.324219 1939.652344 1141.1875 1916.347656 L 1151.066406 1899.738281 L 1152.269531 1921.148438 L 1153.46875 1942.558594 L 1161.578125 1943.335938 C 1166.039062 1943.757812 1170.652344 1943.144531 1171.828125 1941.96875 C 1173.046875 1940.75 1173.269531 1921.996094 1172.351562 1898.570312 C 1170.746094 1857.800781 1170.664062 1857.316406 1165.296875 1857.316406 C 1155.300781 1857.316406 1152.585938 1860.015625 1139.785156 1882.6875 C 1132.785156 1895.089844 1126.390625 1905.261719 1125.578125 1905.289062 C 1124.765625 1905.316406 1118.460938 1896.136719 1111.5625 1884.890625 C 1094.589844 1857.214844 1091.5 1854.601562 1080.832031 1858.902344 M 1187.6875 1859.226562 C 1185.378906 1859.6875 1183.484375 1860.359375 1183.484375 1860.710938 C 1183.484375 1861.066406 1191.425781 1879.625 1201.132812 1901.957031 L 1218.78125 1942.558594 L 1239.796875 1942.558594 L 1257.398438 1903.210938 C 1267.078125 1881.570312 1274.429688 1862.390625 1273.738281 1860.589844 C 1272.40625 1857.121094 1261.015625 1856.179688 1256.359375 1859.152344 C 1254.84375 1860.121094 1248.480469 1872.601562 1242.230469 1886.886719 C 1235.976562 1901.167969 1230.058594 1911.972656 1229.082031 1910.898438 C 1228.105469 1909.824219 1223.226562 1899.214844 1218.238281 1887.328125 C 1213.253906 1875.445312 1208.222656 1864.484375 1207.058594 1862.980469 C 1204.71875 1859.953125 1194.226562 1857.917969 1187.6875 1859.226562 M 1300.761719 1873.523438 C 1283.722656 1910.914062 1272.328125 1937.902344 1272.328125 1940.867188 C 1272.328125 1943.101562 1275.277344 1943.816406 1282.332031 1943.296875 C 1290.921875 1942.660156 1292.871094 1941.453125 1296.136719 1934.738281 L 1299.945312 1926.914062 L 1319.070312 1927.535156 L 1338.199219 1928.152344 L 1340.429688 1935.957031 C 1342.550781 1943.382812 1343.222656 1943.757812 1354.320312 1943.757812 C 1360.730469 1943.757812 1365.976562 1943.054688 1365.976562 1942.1875 C 1365.976562 1941.328125 1363.402344 1935.113281 1360.253906 1928.382812 C 1351.078125 1908.761719 1343.007812 1890.707031 1337.070312 1876.523438 C 1329.519531 1858.492188 1328.328125 1857.316406 1317.558594 1857.316406 C 1308.269531 1857.316406 1308.050781 1857.527344 1300.761719 1873.523438 M 1377.984375 1900.535156 L 1377.984375 1943.757812 L 1402.152344 1943.757812 C 1443.683594 1943.757812 1459.925781 1932.601562 1461.574219 1902.9375 C 1462.3125 1889.65625 1461.609375 1886.109375 1456.832031 1879.148438 C 1445.054688 1861.964844 1433.101562 1857.464844 1398.996094 1857.371094 L 1377.984375 1857.316406 Z M 51.699219 1878.125 C 50.820312 1879.003906 50.097656 1884.464844 50.097656 1890.253906 L 50.097656 1900.777344 L 63.859375 1900.054688 C 76.558594 1899.390625 77.800781 1898.808594 80.019531 1892.480469 C 82.082031 1886.589844 81.632812 1884.988281 76.796875 1881.074219 C 71.34375 1876.660156 55.078125 1874.746094 51.699219 1878.125 M 426.101562 1880.449219 C 423.5625 1887.0625 427.230469 1900.253906 432.03125 1901.78125 C 439.152344 1904.039062 455.867188 1898.546875 456.191406 1893.839844 C 457.050781 1881.492188 451.878906 1876.710938 437.554688 1876.601562 C 430.515625 1876.546875 427.167969 1877.671875 426.101562 1880.449219 M 693.632812 1888.273438 C 693.632812 1901.738281 696.398438 1903.949219 710.160156 1901.472656 C 721.222656 1899.484375 724.847656 1896.546875 724.847656 1889.574219 C 724.847656 1881.921875 716.1875 1876.523438 703.902344 1876.523438 L 693.632812 1876.523438 Z M 1399.59375 1900.535156 L 1399.59375 1924.550781 L 1412.988281 1924.550781 C 1424.585938 1924.550781 1427.316406 1923.609375 1433.398438 1917.53125 C 1438.746094 1912.179688 1440.417969 1908.292969 1440.417969 1901.171875 C 1440.417969 1885.882812 1428.503906 1876.523438 1409.042969 1876.523438 L 1399.59375 1876.523438 Z M 145.410156 1895.132812 C 143.160156 1901.40625 141.328125 1907.105469 141.335938 1907.796875 C 141.339844 1908.488281 145.667969 1909.222656 150.953125 1909.429688 C 156.234375 1909.636719 160.554688 1909 160.554688 1908.003906 C 160.554688 1903.921875 152.773438 1883.726562 151.199219 1883.726562 C 150.265625 1883.726562 147.660156 1888.863281 145.410156 1895.132812 M 796.285156 1893.96875 C 790.460938 1908.132812 790.800781 1909.128906 801.6875 1909.769531 C 806.96875 1910.082031 811.292969 1909.300781 811.292969 1908.035156 C 811.292969 1905.457031 802.242188 1883.722656 801.171875 1883.738281 C 800.792969 1883.742188 798.59375 1888.347656 796.285156 1893.96875 M 1312.226562 1895.585938 C 1310.09375 1902.105469 1308.347656 1907.976562 1308.347656 1908.625 C 1308.347656 1909.277344 1312.671875 1909.640625 1317.953125 1909.429688 C 1323.234375 1909.222656 1327.535156 1907.945312 1327.503906 1906.59375 C 1327.4375 1903.421875 1318.515625 1883.726562 1317.148438 1883.726562 C 1316.574219 1883.726562 1314.359375 1889.0625 1312.226562 1895.585938 M 1012.121094 1896.414062 C 1006.8125 1910.316406 1006.855469 1910.414062 1017.796875 1909.769531 C 1023.667969 1909.425781 1027.402344 1908.015625 1027.402344 1906.152344 C 1027.402344 1901.988281 1019.703125 1886.128906 1017.679688 1886.128906 C 1016.78125 1886.128906 1014.285156 1890.757812 1012.121094 1896.414062 " fill-opacity="1" fill-rule="evenodd"/></g></svg>